<?xml version="1.0" encoding="utf-8"?>
<!-- Generator: Adobe Illustrator 23.0.0, SVG Export Plug-In . SVG Version: 6.00 Build 0)  -->
<svg version="1.1" id="Bulemonster" xmlns="http://www.w3.org/2000/svg" xmlns:xlink="http://www.w3.org/1999/xlink" x="0px"
	 y="0px" viewBox="0 0 884.5 948.2" style="enable-background:new 0 0 884.5 948.2;" xml:space="preserve">
<style type="text/css">
	.st0{fill:#C783B7;}
	.st1{fill:#125785;}
	.st2{fill:#8E4C87;}
	.st3{fill:#1B70B6;}
	.st4{fill:#66A0D7;}
	.st5{fill:#1E1F1D;}
	.st6{fill:#A3201B;}
	.st7{fill:#E32D28;}
	.st8{fill:url(#bule_1_);}
	.st9{fill:#FFFFFF;}

</style>
<title>kidaha_1</title>
<g id="right_x5F_horn">
	<path class="st0" d="M824.9,57.3c18.8-17.6,49.8,12.5,57.7,63c-20.6-13.8-42.8-15.1-57.4-13.9C829.4,77.9,825.1,58.1,824.9,57.3z"
		/>
	<path class="st1" d="M817.2,139c-6.1-0.9-12.2-1.3-18.4-1.3c4.7-9,8.1-18.6,10.3-28.6c5.3-1.4,10.7-2.4,16.1-2.8
		C823.6,117.5,820.9,128.4,817.2,139z"/>
	<path class="st0" d="M860.1,244.9c-3.7-47.7-34.5-68.4-56-77.2c5.2-9.2,9.5-18.8,13-28.7c21.6,2.9,55.5,12.8,63,45.1
		C875.9,205.1,869.2,225.5,860.1,244.9z"/>
	<path class="st1" d="M733.3,206.4c7,6.7,13.5,13.9,19.4,21.5c-24,19.7-55.5,38.3-96.8,54l-6.2-37l23.4-6.3
		C694.2,230,714.4,219.2,733.3,206.4z"/>
	<path class="st2" d="M824.9,57.3c0.2,0.8,4.5,20.6,0.3,49.1c-5.5,0.4-10.9,1.3-16.1,2.8c0.9-4,1.5-8.1,1.8-12.1
		C812.8,76.5,818,63.7,824.9,57.3z"/>
	<path class="st3" d="M752.7,227.9c17.6,22.6,40.4,60.9,37.4,105.1c-31.3,24.6-70.3,42.6-117.1,50.8l-17.2-101.9
		C697.2,266.2,728.7,247.6,752.7,227.9z"/>
	<path class="st1" d="M783.1,161.7c7.2,1.2,14.3,3.2,21,6c-5.4,9.7-11.6,18.8-18.6,27.4c-7.4-4.7-15.3-8.4-23.7-11
		C769.5,177.3,776.6,169.8,783.1,161.7z"/>
	<path class="st0" d="M790.1,333c3-44.2-19.9-82.5-37.4-105.1c12-9.8,23-20.8,32.8-32.8c21.3,13.3,49.1,40.8,48.4,93.1
		C821.4,305,806.6,320.1,790.1,333z"/>
	<path class="st2" d="M798.8,137.7c6.1,0,12.3,0.4,18.4,1.3c-3.5,9.9-7.8,19.6-13,28.7c-6.8-2.8-13.8-4.8-21-6
		C789.1,154.3,794.4,146.2,798.8,137.7L798.8,137.7z"/>
	<path class="st3" d="M880.1,184.1c-7.5-32.3-41.4-42.2-63-45.1c3.7-10.6,6.4-21.5,8-32.6c14.5-1.2,36.8,0.1,57.4,13.9
		c2.4,15.7,2.5,31.8,0.3,47.5C882.1,173.3,881.2,178.7,880.1,184.1z"/>
	<path class="st3" d="M785.5,195.1c7-8.6,13.2-17.8,18.6-27.4c21.5,8.7,52.3,29.4,56,77.2l0,0c-7.2,15.3-16,29.8-26.2,43.4
		C834.6,235.9,806.7,208.4,785.5,195.1z"/>
	<path class="st2" d="M733.3,206.4c10-6.8,19.6-14.2,28.5-22.3c8.3,2.6,16.3,6.3,23.7,11c-9.8,12-20.8,23-32.8,32.8
		C746.8,220.2,740.3,213.1,733.3,206.4z"/>
</g>
<g id="left_x5F_horn">
	<path class="st0" d="M59.2,107.2c-4.3-29.1,0.3-49.1,0.3-49.1C40.8,40.4,9.8,70.6,1.9,121C22.5,107.2,44.7,106,59.2,107.2z"/>
	<path class="st3" d="M67.3,139.8c-3.7-10.6-6.4-21.5-8-32.6c-14.6-1.2-36.8,0-57.4,13.8c-2.4,15.8-2.5,31.8-0.3,47.6
		c0.7,5.4,1.6,10.8,2.7,16.2C11.9,152.5,45.7,142.7,67.3,139.8z"/>
	<path class="st3" d="M94.3,333.8c31.3,24.6,70.3,42.7,117.1,50.8l17.2-101.9c-41.4-15.7-72.9-34.3-96.9-54
		C114.1,251.3,91.3,289.6,94.3,333.8z"/>
	<path class="st3" d="M99,195.9c-7-8.6-13.3-17.8-18.7-27.4c-21.5,8.7-52.3,29.5-56,77.2l0,0c7.2,15.3,16,29.9,26.2,43.4
		C49.8,236.7,77.7,209.2,99,195.9z"/>
	<path class="st2" d="M59.5,58.1c0,0-4.6,20-0.3,49.1c5.5,0.4,10.9,1.3,16.1,2.7c-0.9-4-1.5-8-1.8-12.1
		C71.6,77.3,66.4,64.5,59.5,58.1z"/>
	<path class="st2" d="M101.3,162.5c-6-7.5-11.3-15.5-15.7-24c-6.2,0-12.3,0.4-18.4,1.3c3.5,9.9,7.8,19.6,13,28.8
		C87,165.7,94.1,163.7,101.3,162.5z"/>
	<path class="st2" d="M122.6,184.9c0,0-10.6,2.8-23.6,11.1c9.8,12,20.8,23,32.8,32.8c5.9-7.7,12.4-14.9,19.4-21.6
		C141.1,200.4,131.6,193,122.6,184.9z"/>
	<path class="st0" d="M67.3,139.8c-21.6,3-55.4,12.8-63,45.1c4.2,21,10.9,41.4,20,60.8c3.8-47.7,34.5-68.4,56-77.2
		C75.1,159.3,70.8,149.7,67.3,139.8z"/>
	<path class="st1" d="M101.3,162.5c-7.2,1.2-14.3,3.2-21,6C85.7,178.2,92,187.4,99,196c13-8.2,23.7-11.1,23.7-11.1
		C115,178,107.9,170.5,101.3,162.5L101.3,162.5z"/>
	<path class="st1" d="M75.4,109.9c-5.3-1.4-10.7-2.4-16.2-2.7c1.6,11.1,4.3,22,8,32.6c6.1-0.9,12.2-1.3,18.4-1.3
		C80.9,129.5,77.5,119.8,75.4,109.9z"/>
	<path class="st0" d="M99,195.9c-21.3,13.3-49.1,40.8-48.4,93.1c12.6,16.8,27.3,31.8,43.8,44.8c-3-44.2,19.8-82.5,37.4-105.1
		C119.8,219,108.8,208,99,195.9z"/>
	<path class="st1" d="M234.8,245.7l-23.4-6.3c-21.2-8.6-41.4-19.4-60.3-32.2c-7,6.7-13.5,13.9-19.4,21.6c24,19.7,55.5,38.3,96.9,54
		L234.8,245.7z"/>
</g>
<path id="body" class="st4" d="M636.7,884.6c-62.5-26.3,43.1-123,86.2-513c24.4-221-77.1-283.8-169.7-296.8L584,16.6
	c1.8-3.4-2.2-7.8-10.2-11.2S554-0.4,541.5,0.1c-19,0.8-37.9,3.8-56.2,9.1c-15.7,4.5-31.1,10.2-45.9,17.1
	c-13.6,6.3-26.8,13.3-39.6,21.1c-12.2,7.4-24,15.3-35.3,23.9l-1.6,1.5l-1.7,1.4c-7.7,5-15.1,10.4-22.2,16.2
	c-6.9,5.6-13.5,11.4-19.7,17.3c-12,11.4-23,23.9-32.8,37.2l-35.7-40.8c-2.6-3-7.3-3-12.6-0.5s-11.3,7.7-16.1,14.8
	c-11,16-20,33.2-27,51.3c-6.5,16.8-10.5,34.4-12.1,52.4c-1.4,16.7-0.5,33.4,2.8,49.8c1.6,7.8,3.7,15.6,6.2,23.2
	c0.6,1.9,7.2,19.9,7.2,19.9c0,1.1,0,2.3,0,3.5l-55-1.9c-8.7-0.3-11.8,10.9-6.7,24.8c19.9,55.2,40.2,110.1,60.7,165l-32.8-0.7
	c-8.7-0.2-11.6,11-6.4,24.8L214.2,677c0.1,0.5,0.1,1.1,0.1,1.6l-32-0.6c-8.7-0.2-11.5,11-6.3,24.8l47.8,125.7
	c0.5,7.5,0.9,14.1,1.2,19.7c4.8,82.7-25.9,53.4-71.1,76s62.5,24,148.7,24s25.9-54,34.5-100s28-49.2,135.8-44.9s60.3,85.3,47.4,120.9
	s125,22.2,196.1,18.1S699.2,911,636.7,884.6z"/>
<g id="mouth">
	<path id="black_x5F_mouth" class="st5" d="M443.9,536c-63.1,0-121.8,32.2-155.7,85.4l0,0c-48.7-51.2-69.3-123-55.1-192.2
		c50.9,48.1,126.5,78.5,210.8,78.5s159.8-30.4,210.8-78.5c14.3,69.2-6.3,141.1-55.1,192.2l0,0c-3.9-6.1-8.2-12-12.8-17.6
		C551.9,560.9,499.4,535.9,443.9,536z"/>
	<path id="red" class="st6" d="M288.2,621.5c3.9-6.1,8.2-12,12.8-17.6c72.2,78.9,194.7,84.4,273.6,12.2c4.3-3.9,8.3-8,12.2-12.2
		c4.6,5.6,8.9,11.5,12.8,17.6l0,0c-82.1,86-218.4,89.1-304.4,7C292.9,626.2,290.5,623.8,288.2,621.5L288.2,621.5z"/>
	<path id="tongue" class="st7" d="M443.9,536c55.4-0.1,107.9,24.9,142.9,67.8c-72.2,78.9-194.7,84.4-273.6,12.2
		c-4.3-3.9-8.3-8-12.2-12.2C336,560.9,388.5,535.9,443.9,536z"/>
</g>
<g id="eye">
	
		<linearGradient id="bule_1_" gradientUnits="userSpaceOnUse" x1="342.1" y1="-42.53" x2="557.3" y2="-42.53" gradientTransform="matrix(1 0 0 1 0 312.23)">
		<stop  offset="0" style="stop-color:#2273B7"/>
		<stop  offset="0.6" style="stop-color:#3DA4DD"/>
	</linearGradient>
	<path id="bule" class="st8" d="M342.1,269.7c0-59.4,48.2-107.6,107.6-107.6s107.6,48.2,107.6,107.6s-48.2,107.6-107.6,107.6l0,0
		C390.3,377.3,342.1,329.1,342.1,269.7L342.1,269.7z M519.3,269.7c0-38.4-31.1-69.5-69.5-69.5s-69.5,31.1-69.5,69.5
		s31.1,69.5,69.5,69.5C488.1,339.3,519.2,308.1,519.3,269.7z"/>
	<path id="white_x5F_huge" class="st9" d="M286.9,269.7c0-89.9,72.9-162.7,162.8-162.7s162.7,72.9,162.7,162.8
		s-72.9,162.7-162.8,162.7C359.8,432.5,286.9,359.7,286.9,269.7C286.9,269.8,286.9,269.8,286.9,269.7z M449.7,162.2
		c-59.4,0-107.6,48.2-107.6,107.6s48.2,107.6,107.6,107.6s107.6-48.2,107.6-107.6C557.3,210.3,509.1,162.2,449.7,162.2L449.7,162.2z
		"/>
	<path id="white_x5F_small" class="st9" d="M401,271.8c0-7,5.7-12.7,12.7-12.7s12.7,5.7,12.7,12.7s-5.7,12.7-12.7,12.7
		S401,278.9,401,271.8C401,271.9,401,271.8,401,271.8z"/>
	<path id="black" class="st5" d="M380.2,269.7c0-38.4,31.1-69.5,69.5-69.5s69.5,31.1,69.5,69.5s-31.1,69.5-69.5,69.5l0,0
		C411.3,339.2,380.2,308.1,380.2,269.7z M413.7,259.1c-7,0-12.7,5.7-12.7,12.7s5.7,12.7,12.7,12.7s12.7-5.7,12.7-12.7l0,0
		C426.4,264.8,420.7,259.1,413.7,259.1L413.7,259.1L413.7,259.1z M475.1,237.7c0-14-11.3-25.4-25.4-25.4c-14,0-25.4,11.3-25.4,25.4
		s11.3,25.4,25.4,25.4l0,0C463.7,263.1,475.1,251.7,475.1,237.7L475.1,237.7z"/>
	<path id="white_x5F_big" class="st9" d="M449.7,212.3c14,0,25.4,11.4,25.4,25.4s-11.4,25.4-25.4,25.4s-25.4-11.4-25.4-25.4
		C424.3,223.7,435.7,212.3,449.7,212.3z"/>
</g>
</svg>
