<?xml version="1.0" encoding="utf-8"?>
<!-- Generator: Adobe Illustrator 23.0.0, SVG Export Plug-In . SVG Version: 6.00 Build 0)  -->
<svg version="1.1" id="Pinkmonster" xmlns="http://www.w3.org/2000/svg" xmlns:xlink="http://www.w3.org/1999/xlink" x="0px"
	 y="0px" viewBox="0 0 585.7 957.7" style="enable-background:new 0 0 585.7 957.7;" xml:space="preserve">
<style type="text/css">
	.st0{fill:#D5418F;}
	.st1{fill:#1E1F1D;}
	.st2{fill:#E32D28;}
	.st3{fill:#A3201B;}
	.st4{fill:#FFFFFF;}
	.st5{fill:#E3C724;}
	.st6{fill:#A7C833;}
	.st7{fill:#E6362C;}
	.st8{fill:#C72C28;}
	.st9{fill:#E3AB28;}
	.st10{fill:#9DC42B;}
	.st11{fill:#FADF21;}
	.st12{fill:#CA9220;}
</style>
<title>kidaha_2</title>
<path id="body" class="st0" d="M299.4,164.1c0,0,240.7-49.9,240.7,258.8v534.8h-90.8V740.3c0,0-68.1,27.7-149.9,27.7h-13.1
	c-81.7,0-149.9-27.7-149.9-27.7v217.4H45.6V422.9c0-308.8,240.7-258.8,240.7-258.8H299.4z"/>
<g id="mouth">
	<path class="st1" d="M450,553.3c0.1,40.4-15.5,79.3-43.5,108.5c-40-62.8-123.2-81.3-186-41.3c-12.1,7.7-22.9,17.3-32,28.4
		c-3.4,4.1-6.5,8.4-9.3,12.8c-35.6-37.3-50.6-89.8-40.3-140.3c37.2,35.1,92.3,57.3,153.9,57.3s116.7-22.2,153.9-57.3
		C448.9,532,450,542.7,450,553.3z"/>
	<path class="st2" d="M292.8,599.4c40.5,0,78.8,18.2,104.4,49.6c-52.7,57.6-142.1,61.6-199.8,9c-3.1-2.8-6.1-5.8-9-9
		C214,617.6,252.4,599.4,292.8,599.4z"/>
	<path class="st3" d="M397.2,649c3.4,4.1,6.5,8.4,9.3,12.8c-59.9,62.8-159.4,65.1-222.1,5.2c-1.8-1.7-3.5-3.4-5.2-5.2
		c2.8-4.5,5.9-8.8,9.3-12.8c52.7,57.6,142.1,61.6,199.8,9C391.4,655.1,394.3,652.1,397.2,649z"/>
</g>
<g id="sunglasses">
	<path class="st4" d="M46.6,424.1c3.4,22.4,4.2,35.7,4.2,35.8c-8.4-24.8-16.4-49.6-23.8-74.8c-1.8-6.3-3.6-12.6-5.3-19.1
		c-0.8-3.3-1.7-6.2-2.4-10.1c-0.7-3.9-0.8-8-0.2-11.9c0.6-4.4,2.2-8.6,4.8-12.3c2.6-3.5,6-6.4,9.9-8.4c3.5-1.8,7.3-3.1,11.2-3.9
		c3.7-0.8,7.5-1.2,11.3-1.1h98.1c0,0-38.5,10.9-98.2,13.8H56c-7.7,0.3-16.7,3-20.2,8c-1.8,2.6-2.8,5.6-2.7,8.8
		c-0.1,3.5,0.6,7.1,1.5,11.5l5,23.9C42.5,399.5,44.9,413,46.6,424.1z"/>
	<path class="st1" d="M547.2,440.7c-0.4,0.4-6.6,8.5-16,21.6c-4.9,6.8-10.7,14.9-17.5,23.6s-14.6,18.2-24.1,26.7
		s-19.4,14.3-29.3,17.6c-4.8,1.5-9.8,2.6-14.8,3.2c-4.9,0.8-9.4,1.3-13.5,1.7c-8.3,0.8-15.1,1.2-19.9,1.3l-7.4,0.2
		c7.8,2.5,15.8,4.3,23.9,5.4c4,0.5,8.1,0.9,12.1,1.2c2,0.1,4.1,0.1,6.1,0.2h3.1c1.1,0,2.1,0,3.2-0.1c8.7-0.4,17.2-2.4,25.1-6
		c7.7-3.5,14.9-8.2,21.2-13.9c12.5-11.3,21.7-24.9,29.3-39C536,470.4,542.2,455.8,547.2,440.7z M50.8,459.9c0,0-0.8-13.4-4.2-35.8
		c-1.7-11.2-4.1-24.6-7.1-39.8l-5-23.9c-0.9-4.4-1.6-8-1.5-11.5c0-3.1,0.9-6.2,2.7-8.8c3.5-5,12.6-7.7,20.2-8H56
		c59.7-3,98.1-13.8,98.1-13.8h-98c-3.8,0-7.6,0.3-11.3,1.1c-3.9,0.8-7.6,2.1-11.2,3.9c-3.9,2-7.2,4.9-9.9,8.4
		c-2.6,3.6-4.2,7.8-4.8,12.3c-0.5,4-0.5,8,0.2,11.9s1.6,6.9,2.4,10.1c1.7,6.4,3.5,12.8,5.3,19.1C34.4,410.3,42.4,435.1,50.8,459.9z
		 M313.8,365.8c0,0,3.2-19.1-20.9-19.1S272,365.8,272,365.8v79c0,45.1-46.7,116.5-140.1,116.5S11,391.6,1.3,346.7s37-48.5,37-48.5
		h509c0,0,46.7,3.6,37.1,48.5s-37.1,214.6-130.5,214.6s-140.1-71.4-140.1-116.5L313.8,365.8z"/>
	<path class="st4" d="M404.5,536.7l7.4-0.2c4.8-0.2,11.6-0.5,19.9-1.3c4.2-0.4,8.7-1,13.5-1.7c5-0.6,10-1.7,14.8-3.2
		c10-3.2,19.9-9.1,29.4-17.6s17.3-18,24.1-26.7c6.8-8.7,12.6-16.8,17.5-23.6c9.4-13.2,15.6-21.2,16-21.6
		c-5,15.1-11.2,29.7-18.6,43.8c-7.6,14.1-16.8,27.7-29.3,39c-6.3,5.7-13.5,10.4-21.2,13.9c-7.9,3.6-16.4,5.6-25.1,6
		c-1.1,0-2.1,0.1-3.2,0.1h-3.1c-2-0.1-4-0.1-6.1-0.2c-4-0.2-8.1-0.6-12.1-1.2C420.3,541,412.3,539.2,404.5,536.7z"/>
</g>
<g id="hat">
	<path class="st5" d="M292.9,248.5c36-5.5,61.7-18.4,79-30.9c1.7,12.4,2.5,24.9,2.5,37.3l0,0c-21.6,8.7-51.5,13-81.4,13v-19.4H292.9
		z"/>
	<path class="st6" d="M401.5,187.6c0,0-8.7,14.7-29.7,30c-11.6-84-60.5-108.3-62.3-109.2C352.9,114.9,388.7,145.6,401.5,187.6
		L401.5,187.6z"/>
	<path class="st7" d="M284.1,60.5c0-4.8,3.9-8.7,8.7-8.7c4.8,0,8.7,3.9,8.7,8.7l0,0v47c-2.9-0.2-5.8-0.3-8.7-0.3s-5.9,0.1-8.7,0.3
		V60.5z"/>
	<path class="st8" d="M211.5,248c-0.1,2.3-0.1,4.6-0.1,6.9c-6.5-2.5-12.7-5.9-18.3-10C199.4,246.1,205.5,247.2,211.5,248z"/>
	<path class="st9" d="M89.5,37.2C89.5,16.6,106.1,0,126.6,0c4.7,0,9.3,0.9,13.7,2.6L282.8,34c1.7-5.5,7.6-8.7,13.1-7
		c3.3,1,6,3.6,7,7L445.4,2.6c19.1-7.5,40.7,1.8,48.2,20.9s-1.8,40.7-20.9,48.2c-4.4,1.7-9,2.6-13.7,2.6s-9.3-0.9-13.6-2.6
		L302.9,40.3c-1.7,5.5-7.5,8.7-13.1,7c-3.4-1-6-3.7-7-7L140.3,71.7c-19.1,7.6-40.7-1.8-48.2-20.8C90.4,46.5,89.5,41.9,89.5,37.2z"/>
	<path class="st9" d="M211.5,248c2.7-98.6,62.7-138.3,64.6-139.6c2.6-0.4,5.3-0.7,8-0.9c2.9-0.2,5.8-0.3,8.7-0.3v141.3
		C270.1,252,243.1,252.4,211.5,248z"/>
	<path class="st10" d="M374.3,254.9c0-12.5-0.8-25-2.5-37.3c21.1-15.3,29.7-30,29.7-30l0,0c3.3,10.8,5,22,5,33.3
		C406.5,235.8,393.8,247.1,374.3,254.9L374.3,254.9L374.3,254.9z"/>
	<path class="st11" d="M309.6,108.4c1.7,0.8,50.6,25.1,62.3,109.2c-17.3,12.5-42.9,25.4-79,30.9V107.2c2.9,0,5.8,0.1,8.7,0.3
		C304.3,107.7,306.9,108,309.6,108.4z"/>
	<path class="st7" d="M179.2,220.9c0-56.3,41.3-104.2,97-112.5c-1.9,1.3-62,41-64.6,139.6c-6-0.8-12.1-1.8-18.4-3.1
		C184.3,238.3,179.2,230.3,179.2,220.9z"/>
	<path class="st12" d="M211.4,254.9c0-2.3,0-4.6,0.1-6.9c31.6,4.4,58.6,4,81.4,0.5V268C262.9,267.9,233,263.6,211.4,254.9z"/>
</g>
</svg>
