<?xml version="1.0" encoding="utf-8"?>
<!-- Generator: Adobe Illustrator 23.0.0, SVG Export Plug-In . SVG Version: 6.00 Build 0)  -->
<svg version="1.1" id="Sunglassesmonster" xmlns="http://www.w3.org/2000/svg" xmlns:xlink="http://www.w3.org/1999/xlink" x="0px"
	 y="0px" viewBox="0 0 965.5 937.6" style="enable-background:new 0 0 965.5 937.6;" xml:space="preserve">
<style type="text/css">
	.st0{fill:#566EB3;}
	.st1{fill:#4081C2;}
	.st2{fill:#66A0D7;}
	.st3{fill:#9C1C1B;}
	.st4{fill:#C8C7C7;}
	.st5{fill:#1E1F1D;}
	.st6{fill:#FFFFFF;}
	.st7{fill:#E43333;}
</style>
<title>kindaha_6</title>
<path id="right_leg" class="st0" d="M600.6,906.9l-34.8,9.4l28-10.8c0,0,0.7-11.7-22.7-6.7c-10.4,2.2-26.3,7.6-40.6,14l55-213.1h-34
	l-38.2,221.7c-9.6,5.6-16.3,11.4-16.3,16.1h120.2C617.2,937.6,635.4,897.6,600.6,906.9z"/>
<path id="left_leg" class="st0" d="M366.9,906.9l34.8,9.4l-28-10.8c0,0-0.8-11.7,22.7-6.7c10.4,2.2,26.3,7.6,40.6,14l-54.9-213.1h34
	l38.1,221.8c9.6,5.6,16.3,11.4,16.3,16.1H350.3C350.3,937.6,332.1,897.6,366.9,906.9z"/>
<g id="body">
	<path class="st1" d="M195.5,216.5L195.5,216.5L195.5,216.5z"/>
	<path class="st2" d="M772,216.5L772,216.5z"/>
	<path class="st2" d="M253.9,110.4C323.7,13.5,483.7,0,483.7,0s160,13.5,229.8,110.4c0,0-42.8-12.9-56.3-9.8
		c0,0,71.7,32.7,114.7,115.9c-0.9-0.9-29.7-29.5-62.9-36.2c0,0,58.6,41.6,90.1,151.5c-1-1.2-32.6-41.1-65.5-43.3
		c0,0,65.6,146.5,65.6,279.4c0,60.7-26.8,117.5-73.6,161.5l0,0c-52.9,37.9-122.8,63.1-204.8,67.5C327,807.4,187.5,695.5,180.1,557.8
		c-2.8-51.5,3.8-105.4,13.1-152.8v-0.1c18.6-67.3,40.6-116.5,40.6-116.5c-33,2.2-64.6,42.1-65.6,43.3
		c31.6-109.8,90.1-151.5,90.1-151.5c-33.3,6.6-62,35.3-62.9,36.2c43-83.2,114.8-115.9,114.8-115.9
		C296.7,97.5,253.9,110.4,253.9,110.4z"/>
	<path class="st1" d="M520.8,796.9c82-4.4,151.9-29.6,204.8-67.5c-55.8,52.3-140.2,86.3-241.9,86.3c-187,0-315.5-114.9-315.5-247.8
		c0-55.9,11.6-114.1,25-162.9c-9.4,47.4-15.9,101.3-13.1,152.8C187.5,695.5,327,807.4,520.8,796.9z"/>
</g>
<path id="left_hand" class="st2" d="M28.4,608.3c8.7-7.8,21.7-17.9,35.3-23c22-61.2,56-118.5,105.4-161.4
	c21.3-18.5,46.5-36.6,73.7-45.4c19-6.1,27,23.7,8.1,29.8c-1.3,0.4-2.7,1-4,1.5c-1,0.4-1.9,0.8-2.9,1.3c-2.8,1.3-5.5,2.6-8.2,4
	c-15.6,8.2-30.3,18.1-43.7,29.5c-44.5,37.7-75.6,88.1-96.2,142.1c0.5,0.4,1.1,0.7,1.6,1.1c13.7,10.4,14.6,28.7,17.8,44
	c3.1,14.8,40.6,49.5,14.8,60.2c-26.9,11.1-31.5-38.9-49.1-38c-13.5,0.7-7.4,28.3-6.3,35.8c2.5,17.9,10,38.8,3.3,56.4
	c-9.4,24.8-39.6,9.5-52.7-2.8c-15.9-14.7-23-38.6-24.9-59.7C-2.1,655.5,7,627.5,28.4,608.3z"/>
<path id="right_hand" class="st2" d="M937.1,589.1c-8.7-7.8-21.7-17.9-35.3-23c-22-61.1-56-118.5-105.4-161.4
	c-21.3-18.5-46.5-36.6-73.7-45.4c-19-6.2-27,23.6-8.2,29.8c1.4,0.4,2.7,1,4,1.5c1,0.4,2,0.8,2.9,1.3c2.8,1.3,5.5,2.6,8.2,4
	c15.6,8.2,30.3,18.1,43.7,29.6c44.5,37.6,75.6,88,96.2,142.1c-0.5,0.4-1.1,0.7-1.6,1.1c-13.7,10.4-14.6,28.6-17.8,44
	c-3.1,14.8-40.6,49.5-14.8,60.2c26.9,11.1,31.5-38.9,49.1-38c13.5,0.7,7.4,28.3,6.3,35.8c-2.5,17.9-10,38.8-3.3,56.4
	c9.4,24.8,39.6,9.5,52.7-2.7c15.9-14.8,23-38.7,24.9-59.8C967.5,636.3,958.4,608.3,937.1,589.1z"/>
<g id="mouth">
	<path class="st3" d="M639.6,640.5c-32,45.1-81.4,80.4-157.9,80.4s-126-35.2-157.9-80.4l0,0c3.9-5.4,8.2-10.5,13-15.2
		c30,39.9,75.4,70.5,144.3,70.5c69.3,0,114.8-30.9,144.7-71.2l0,0C630.9,629.5,635.5,634.8,639.6,640.5L639.6,640.5z"/>
	<polygon class="st4" points="652.8,355.3 652.8,371.3 305.4,371.3 305.4,355.3 481.7,355.3 	"/>
	<path class="st5" d="M625.9,624.6c-21.1-21-67.5-55.3-144.1-55.3c-77.6,0-124.1,35.1-144.9,56c-4.8,4.7-9.1,9.7-13,15.2l0,0
		c-56.9-80.4-58.3-192.2-58.3-192.2v-93h39.9v173.5l70.7-136.6l32.3,46.1l34.4-40.9l39,44.5l33.7-44.5l34.4,40.9l32.3-46.1
		L653,528.8V355.3h45.2v93c0,0-1.4,111.8-58.3,192.2l0,0C635.5,634.8,630.9,629.5,625.9,624.6z"/>
	<polygon class="st6" points="515.4,397.5 481.7,442 442.7,397.5 408.4,438.3 376.1,392.2 305.4,528.9 305.4,371.3 652.8,371.3 
		652.8,528.9 582.1,392.2 549.8,438.3 	"/>
	<path class="st7" d="M481.7,569.3c76.7,0,123,34.3,144.1,55.3l0,0c-29.9,40.3-75.5,71.2-144.7,71.2c-68.9,0-114.3-30.5-144.3-70.5
		C357.6,604.4,404.1,569.3,481.7,569.3z"/>
</g>
<g id="sunglasses">
	<path class="st5" d="M226.6,207.1c-0.5,3.7-0.4,7.4,0.2,11.1c0.7,3.6,1.5,6.4,2.2,9.4c1.6,6,3.2,11.9,4.9,17.7
		c6.9,23.4,14.4,46.5,22.2,69.5c0-0.5-0.8-12.9-3.9-33.2c-1.6-10.4-3.8-22.9-6.6-37l-4.6-22.3c-0.8-4.1-1.5-7.4-1.4-10.7
		c0-2.9,0.8-5.7,2.5-8.1c3.3-4.7,11.7-7.1,18.8-7.4h0.1c55.5-2.7,91.2-12.8,91.2-12.8h-91.1c-3.5-0.1-7,0.3-10.5,1
		c-3.6,0.7-7.1,1.9-10.4,3.6c-3.6,1.9-6.7,4.5-9.2,7.8C228.7,199.1,227.1,203,226.6,207.1z M672.9,374
		c11.6-10.5,20.2-23.1,27.3-36.2c6.9-13.1,12.7-26.7,17.3-40.7c-0.4,0.4-6.2,7.9-14.9,20.1c-4.5,6.3-10,13.8-16.3,22
		S672.7,356,663.9,364s-18,13.4-27.3,16.4c-4.5,1.4-9.1,2.4-13.8,3c-4.5,0.7-8.7,1.2-12.6,1.6c-7.7,0.8-14.1,1.1-18.5,1.2l-6.9,0.2
		c7.2,2.3,14.7,4,22.2,5c3.8,0.5,7.5,0.9,11.3,1.1c1.9,0.1,3.8,0.1,5.7,0.2h2.8c1,0,2,0,3-0.1c8.1-0.4,16-2.3,23.3-5.6
		C660.4,383.6,667,379.3,672.9,374z M331.4,409.1c-86.8,0-112.3-157.7-121.2-199.4s34.4-45.1,34.4-45.1h473c0,0,43.5,3.4,34.5,45.1
		s-34.4,199.4-121.3,199.4s-130.2-66.4-130.2-108.3v-73.4c0,0,3-17.7-19.4-17.7s-19.5,17.7-19.5,17.7v73.4
		C461.6,342.7,418.2,409.1,331.4,409.1z"/>
	<path class="st6" d="M700.1,337.8c-7.1,13.1-15.6,25.8-27.3,36.2c-5.9,5.3-12.5,9.6-19.7,12.9c-7.4,3.3-15.3,5.2-23.3,5.6
		c-1,0-2,0.1-3,0.1H624c-1.9,0-3.8-0.1-5.7-0.2c-3.8-0.2-7.5-0.6-11.3-1.1c-7.5-1-15-2.7-22.2-5l6.9-0.2c4.4-0.1,10.8-0.4,18.5-1.2
		c3.9-0.4,8.1-0.9,12.6-1.6c4.7-0.6,9.3-1.6,13.8-3c9.3-3,18.5-8.5,27.3-16.4s16.1-16.7,22.4-24.8s11.7-15.6,16.3-22
		c8.7-12.3,14.5-19.7,14.9-20.1C712.8,311.1,707,324.7,700.1,337.8z"/>
	<path class="st6" d="M226.8,218.2c-0.6-3.7-0.7-7.4-0.2-11.1c0.5-4.1,2.1-8,4.5-11.4c2.4-3.3,5.6-5.9,9.2-7.8
		c3.3-1.7,6.8-2.9,10.4-3.6c3.5-0.7,7-1.1,10.5-1h91.1c0,0-35.8,10.1-91.3,12.8h-0.1c-7.1,0.3-15.5,2.7-18.8,7.4
		c-1.7,2.4-2.5,5.2-2.5,8.1c-0.1,3.3,0.6,6.6,1.4,10.7l4.6,22.2c2.8,14.1,5,26.6,6.6,37c3.1,20.3,3.9,32.7,3.9,33.2
		c-7.8-23.1-15.3-46.1-22.2-69.5c-1.7-5.9-3.4-11.8-4.9-17.7C228.3,224.6,227.5,221.8,226.8,218.2z"/>
</g>
</svg>
