<?xml version="1.0" encoding="utf-8"?>
<!-- Generator: Adobe Illustrator 23.0.0, SVG Export Plug-In . SVG Version: 6.00 Build 0)  -->
<svg version="1.1" id="Simplemonster" xmlns="http://www.w3.org/2000/svg" xmlns:xlink="http://www.w3.org/1999/xlink" x="0px"
	 y="0px" viewBox="0 0 953.6 939" style="enable-background:new 0 0 953.6 939;" xml:space="preserve">
<style type="text/css">
	.st0{fill:#4081C2;}
	.st1{fill:#125B95;}
	.st2{fill:#66A0D7;}
	.st3{fill:#1E1F1D;}
	.st4{fill:url(#SVGID_1_);}
	.st5{fill:#FFFFFF;}
</style>
<title>kidaha_9</title>
<g id="right_horn">
	<path class="st0" d="M580.9,65.4l26.4-18l6.2-4.3l4.7-3.3l9.4-6.6l19.6-13.7L676.1,0l16.7,14.3l8.5,7.2l4,3.4l2.8,2.3l22.5,18.7
		l22.6,18.7l5.6,4.7l2.9,2.4l4.5,3.9l18.5,15.8l-3.5,20.5l-1.7,10.1l-1,6.2l-3.8,25l-3.8,25l-1.9,12.5l-3.6,21l-11.7,10.8l-2.9,2.7
		l-1.7,1.6l-3.2,3.1l-13,12.4L707,267.1l-51.9,49.6c-5.4,5.6-11.2,11.2-17.4,16.7c-28,24.7-56.9,9.6-59.1-13.9l146-121l34-92.1
		l-88.4-77.5l-67.8,41.8l27.1,63.6l0,0c-0.3,3.9-1.5,6.6-3.5,7.5c-5.8,2.3-16.2-9.9-23.4-27.4l-4.4-9.7l-2.3-5.1l-3-6.7L580.9,65.4z
		"/>
	<path class="st1" d="M625.3,68.8L613,75.6l4,12.1l1.1,3.2l1.7,4.8l3.7,10c4.5,11.1,6.7,21.6,6.2,28.4l0,0l-27.1-63.6l67.8-41.8
		l88.4,77.5l-34,92.1l-146,121c-1-10.8,3.6-23.3,16.4-34.6c6.2-5.5,12.5-10.5,18.7-15.2l55.7-45.2l27.9-22.6l13.9-11.3l3.5-2.8
		l1.8-1.4c0.2-0.1,0.3-0.2,0.4-0.3l1.7-1l0.5-1.3l0.3-0.6l0.1-0.4l0.3-1.5l3-12.1l5.8-24.6l5.8-24.6l1.5-6.1c0-0.3,0.1-0.5,0.2-0.8
		l0.2-0.5l0.3-1l1.3-4.3l-3.3-3.8l-0.9-1l-2.5-2.5l-5.2-5.1l-21-20.5l-20.9-20.4l-2.6-2.6l-0.6-0.6l-0.3-0.3l-0.6-0.6l-2.4-2.5
		l-5-5.4l-10,5.3c-0.5,0.3-2.6,1.5-4.2,2.4l-4.9,2.9l-10,5.8l-9.9,5.8l-4.9,2.9l-1.3,0.8l-0.7,0.4L625.3,68.8z"/>
</g>
<g id="lefy_horn">
	<path class="st0" d="M321.5,319.4l-146-121l-33.9-92.1L230,28.8l67.8,41.8l-27.1,63.6l0,0c0.3,4,1.5,6.6,3.6,7.5
		c5.8,2.3,16.2-9.9,23.4-27.4l4.4-9.7l2.3-5.1l3-6.7l12.2-27.3l-26.5-18l-6.2-4.3l-4.8-3.3l-9.4-6.6L253,19.5L224.2,0l-16.6,14.3
		l-8.6,7.2l-4,3.4l-2.8,2.3l-22.5,18.7l-22.5,18.7l-5.7,4.7l-2.9,2.4l-4.5,3.9l-18.5,15.8l3.5,20.6l1.7,10.1l1,6.2l3.8,25l3.8,25
		l1.9,12.5l3.5,21l11.7,10.8l2.9,2.7l1.7,1.6l3.2,3.1l13,12.4l25.9,24.8l51.8,49.6c5.4,5.6,11.2,11.2,17.4,16.7
		C290.4,358,319.4,342.9,321.5,319.4L321.5,319.4z"/>
	<path class="st1" d="M270.7,134.1l27.1-63.6L230,28.7l-88.4,77.5l33.9,92.1l146,121l0,0c1-10.8-3.6-23.3-16.4-34.6
		c-6.3-5.5-12.5-10.5-18.7-15.2l-55.7-45.2l-27.8-22.6L189,190.4l-3.5-2.8l-1.8-1.4l-0.4-0.3l-1.7-1l-0.5-1.3l-0.3-0.6l-0.1-0.4
		l-0.3-1.5l-2.9-12.3l-5.8-24.6l-5.8-24.6l-1.4-6.1c0-0.3-0.1-0.5-0.2-0.8l-0.1-0.5l-0.3-1l-1.3-4.3l3.3-3.8l0.9-1l2.6-2.5l5.2-5.1
		l21-20.5l20.9-20.5l2.6-2.6l0.6-0.6L220,50l0.6-0.6l2.4-2.5l5-5.4l9.9,5.2c0.5,0.3,2.6,1.5,4.2,2.4l5,2.9l9.9,5.8l9.9,5.9l4.9,2.9
		l1.2,0.8l0.7,0.4l1.5,0.8l12.3,6.7l-4,12.1l-1.1,3.2l-1.7,4.8l-3.6,10C272.3,116.7,270.1,127.3,270.7,134.1L270.7,134.1z"/>
</g>
<g id="body">
	<path class="st0" d="M452.8,184.6c242,0,326.2,91.8,309.8,274.8c-0.3,115.1-28.3,241.9-32.9,301.8c-2.1,27,5.5,43.8,18.8,53.7
		c-51.2-23.2-34.5-68.5-20.8-332.8C744,168.3,413.9,185.6,413.9,185.6l0,0C426.3,184.9,439.3,184.6,452.8,184.6z"/>
	<path class="st2" d="M179.9,938.3C31.6,946.5-67.8,873.2,56,860.9s63.8-248.5,50.6-448.1c0,0-6.6-65.3,38.5-118.4
		c0.1-0.1,58.6-98,268.7-108.9l0,0c0,0,330.1-17.3,313.8,296.4c-13.7,264.3-30.4,309.6,20.8,332.8l0,0c9.5,7.1,22.1,10.7,36.2,12
		l0,0c55.4,5.1,135.3-24.8,155.1-14.7c32,16.2,18.8,126.9-152,126.9s-178.3-99.1-178.3-99.1S585.1,939,476.3,939
		s-95.7-110.6-95.7-110.6S328.1,930.2,179.9,938.3z"/>
</g>
<g id="eye">
	<path class="st3" d="M471.8,455c0-23.4-18.9-42.4-42.4-42.4c-23.4,0-42.4,18.9-42.4,42.4s18.9,42.4,42.4,42.4l0,0
		C452.8,497.4,471.8,478.4,471.8,455z M429.4,392.4c64.1,0,116.1,51.9,116.1,116s-51.9,116.1-116,116.1s-116.1-51.9-116.1-116
		c0,0,0,0,0-0.1C313.4,444.4,365.3,392.5,429.4,392.4L429.4,392.4z M369.3,490.8c-11.7,0-21.2,9.5-21.2,21.2s9.5,21.2,21.2,21.2
		s21.2-9.5,21.2-21.2S381.1,490.8,369.3,490.8C369.4,490.8,369.4,490.8,369.3,490.8L369.3,490.8z"/>
	
		<linearGradient id="SVGID_1_" gradientUnits="userSpaceOnUse" x1="249.9" y1="577.763" x2="609" y2="577.763" gradientTransform="matrix(1 0 0 -1 0 1086.96)">
		<stop  offset="0" style="stop-color:#2273B7"/>
		<stop  offset="0.6" style="stop-color:#3DA4DD"/>
	</linearGradient>
	<path class="st4" d="M429.4,392.4c-64.1,0-116,52-116,116.1s52,116,116.1,116s116-52,116-116.1
		C545.5,444.4,493.6,392.4,429.4,392.4C429.5,392.4,429.4,392.4,429.4,392.4z M249.9,508.5c0.7-99.2,81.7-179,180.9-178.2
		c98.1,0.7,177.5,80.1,178.2,178.2c0,99.1-80.4,179.6-179.6,179.6S249.9,607.6,249.9,508.5z"/>
	<path class="st5" d="M348.1,512c0-11.7,9.5-21.2,21.2-21.2s21.2,9.5,21.2,21.2s-9.5,21.2-21.2,21.2s-21.2-9.4-21.2-21.1
		C348.1,512.1,348.1,512,348.1,512z"/>
	<path class="st5" d="M429.4,412.6c23.4,0,42.4,19,42.4,42.4s-19,42.4-42.4,42.4S387,478.4,387,455S406,412.6,429.4,412.6z"/>
	<path class="st5" d="M609,508.5c-0.7-99.2-81.7-179-180.9-178.2C330,331,250.6,410.4,249.9,508.5c0,99.1,80.4,179.6,179.5,179.6
		S609,607.6,609,508.5z M429.4,236.7c150.1,0,271.7,121.6,271.7,271.8S579.5,780.3,429.4,780.3S157.7,658.6,157.7,508.5
		S279.3,236.7,429.4,236.7z"/>
</g>
</svg>
