<?xml version="1.0" encoding="utf-8"?>
<!-- Generator: Adobe Illustrator 23.0.0, SVG Export Plug-In . SVG Version: 6.00 Build 0)  -->
<svg version="1.1" id="Happlemonster" xmlns="http://www.w3.org/2000/svg" xmlns:xlink="http://www.w3.org/1999/xlink" x="0px"
	 y="0px" viewBox="0 0 691.9 960.5" style="enable-background:new 0 0 691.9 960.5;" xml:space="preserve">
<style type="text/css">
	.st0{fill:url(#body_1_);}
	.st1{fill:#030405;}
	.st2{fill:#FFFFFF;}
	.st3{fill:#C8C7C7;}
	.st4{fill:#1E1F1D;}
	.st5{fill:#9C1C1B;}
	.st6{fill:#E43333;}
</style>
<title>kidaha_10</title>
<linearGradient id="body_1_" gradientUnits="userSpaceOnUse" x1="170.3597" y1="110.9704" x2="550.9084" y2="1156.522" gradientTransform="matrix(1 0 0 -1 0 1128.45)">
	<stop  offset="0" style="stop-color:#97C11E"/>
	<stop  offset="0.11" style="stop-color:#A4C622"/>
	<stop  offset="0.27" style="stop-color:#BED019"/>
	<stop  offset="0.45" style="stop-color:#D0D70F"/>
	<stop  offset="0.62" style="stop-color:#DADA08"/>
	<stop  offset="0.79" style="stop-color:#DEDC06"/>
</linearGradient>
<path id="body" class="st0" d="M675.1,909.1h-17.2V36.3c0-20-16.2-36.3-36.3-36.3l0,0H70.3C50.3,0,34,16.2,34,36.2c0,0,0,0,0,0.1
	v872.8H16.8c-9.3,0-16.8,7.5-16.8,16.7l0,0v17.9c0,9.3,7.5,16.8,16.8,16.8l0,0h177.7c9.2,0,16.7-7.5,16.8-16.8v-17.9
	c0-9.3-7.5-16.8-16.7-16.8l0,0H119V642.5h453.9v266.6h-75.4c-9.2,0-16.7,7.5-16.8,16.7l0,0v17.8c0,9.3,7.5,16.8,16.8,16.8l0,0h177.7
	c9.3,0,16.8-7.5,16.8-16.8v-17.9C691.9,916.6,684.4,909.1,675.1,909.1L675.1,909.1z"/>
<g id="left_eye">
	<path class="st1" d="M202.8,272.7c-45.8,0-82.9-37.1-82.9-82.9s37.1-82.9,82.9-82.9s82.9,37.1,82.9,82.9v0.1
		C285.6,235.7,248.5,272.7,202.8,272.7z M236.8,155.4c0-18.8-15.2-34.1-34.1-34.1c-18.8,0-34.1,15.2-34.1,34.1
		c0,18.8,15.2,34.1,34,34.1l0,0C221.6,189.4,236.8,174.2,236.8,155.4L236.8,155.4z M181,203.5c0-9.4-7.7-17-17.1-17s-17,7.7-17,17.1
		c0,9.4,7.7,17,17.1,17C173.4,220.5,181,212.9,181,203.5z"/>
	<path class="st2" d="M168.7,155.4c0-18.8,15.2-34.1,34.1-34.1c18.8,0,34.1,15.2,34.1,34.1c0,18.8-15.2,34.1-34,34.1l0,0
		C184,189.4,168.7,174.2,168.7,155.4z"/>
	<path class="st2" d="M164,186.4c9.4,0,17.1,7.6,17.1,17.1c0,9.4-7.6,17.1-17.1,17.1c-9.4,0-17.1-7.6-17.1-17.1v-0.1
		C147,194,154.6,186.4,164,186.4z"/>
	<path class="st2" d="M202.8,326.8c-75.6,0-136.9-61.3-137-136.9S127.1,53,202.7,52.9s136.9,61.3,137,136.9l0,0
		C339.7,265.5,278.4,326.8,202.8,326.8L202.8,326.8z M202.8,272.7c45.8,0,82.9-37.1,82.9-82.8c0-45.8-37.1-82.9-82.8-82.9
		S120,144.1,120,189.8v0.1C120,235.6,157,272.7,202.8,272.7z"/>
</g>
<g id="right_eye">
	<path class="st2" d="M576.2,189.9c0,45.8-37.2,82.8-82.9,82.8c-45.8,0-82.8-37.2-82.8-82.9s37.1-82.8,82.8-82.8
		S576.1,144,576.2,189.9C576.2,189.8,576.2,189.9,576.2,189.9z M356.5,189.9c0,75.6,61.3,136.9,136.9,136.9s136.9-61.3,136.9-136.9
		S569,53,493.4,53l0,0C417.8,53,356.5,114.3,356.5,189.9L356.5,189.9z"/>
	<path class="st2" d="M532.2,186.4c-9.4,0-17.1,7.6-17.2,17c0,9.4,7.6,17.1,17,17.2s17.1-7.6,17.2-17c0,0,0,0,0-0.1
		C549.2,194.1,541.6,186.5,532.2,186.4z"/>
	<path class="st2" d="M527.5,155.4c0-18.8-15.3-34.1-34.1-34.1c-18.8,0-34.1,15.3-34.1,34.1s15.3,34,34.1,34.1
		C512.2,189.5,527.5,174.2,527.5,155.4L527.5,155.4z"/>
	<path class="st1" d="M410.5,189.9c0,45.8,37.2,82.8,82.9,82.8c45.8,0,82.8-37.2,82.8-82.9S539.1,107,493.3,107
		C447.6,107,410.5,144.1,410.5,189.9C410.5,189.9,410.5,189.9,410.5,189.9z M459.3,155.4c0-18.8,15.3-34.1,34.1-34.1
		s34.1,15.3,34.1,34.1s-15.3,34.1-34.1,34.1l0,0C474.6,189.4,459.3,174.2,459.3,155.4L459.3,155.4L459.3,155.4z M515.1,203.5
		c0-9.4,7.6-17.1,17-17.1s17,7.6,17,17.1c0,9.4-7.6,17.1-17,17.1l0,0C522.8,220.6,515.2,212.9,515.1,203.5z"/>
</g>
<g id="mouth">
	<polygon class="st3" points="462.7,357.3 462.7,369 207.2,369 207.2,357.3 336.9,357.3 	"/>
	<path class="st4" d="M386.9,418.4l23.7-33.9l52,100.5V357.3h33.2v68.4c0,0-1,82.2-42.9,141.3c-3-4.2-6.4-8.1-10.1-11.7
		c-15.5-15.4-49.6-40.7-106-40.7c-57.1,0-91.3,25.8-106.6,41.2c-3.5,3.4-6.7,7.2-9.6,11.1c-41.8-59.1-42.8-141.3-42.8-141.3v-68.4
		h29.3v127.7l52-100.5l23.7,33.9l25.3-30.1l28.7,32.8l24.8-32.8L386.9,418.4z"/>
	<path class="st5" d="M230.3,555.9c22,29.4,55.5,51.8,106.1,51.8c50.9,0,84.4-22.7,106.4-52.4l0,0c3.7,3.6,7.1,7.5,10.2,11.7
		c-23.5,33.2-59.9,59.1-116.1,59.1s-92.6-25.9-116.1-59.1C223.6,563,226.8,559.3,230.3,555.9z"/>
	<polygon class="st2" points="259.2,384.4 207.2,484.9 207.2,369 462.7,369 462.7,484.9 410.7,384.4 386.9,418.4 361.7,388.3 
		336.9,421.1 308.2,388.3 282.9,418.4 	"/>
	<path class="st6" d="M336.4,607.7c-50.7,0-84.1-22.5-106.1-51.8c15.3-15.4,49.5-41.2,106.6-41.2c56.4,0,90.5,25.2,106,40.7l0,0
		C420.8,585,387.3,607.7,336.4,607.7z"/>
</g>
</svg>
