<?xml version="1.0" encoding="utf-8"?>
<!-- Generator: Adobe Illustrator 23.0.0, SVG Export Plug-In . SVG Version: 6.00 Build 0)  -->
<svg version="1.1" id="Redmonster" xmlns="http://www.w3.org/2000/svg" xmlns:xlink="http://www.w3.org/1999/xlink" x="0px" y="0px"
	 viewBox="0 0 731.2 955.4" style="enable-background:new 0 0 731.2 955.4;" xml:space="preserve">
<style type="text/css">
	.st0{fill:#E62A3B;}
	.st1{fill:#CA152C;}
	.st2{fill:#FFFFFF;}
	.st3{fill:url(#SVGID_1_);}
	.st4{fill:#1E1F1D;}
	.st5{fill:url(#SVGID_2_);}
	.st6{fill:#C71B1B;}
	.st7{fill:#E52523;}
</style>
<title>kidaha_4</title>
<g id="body">
	<path class="st0" d="M618.7,243.3L665.4,138c10.5-23.6-0.3-34.3-23.9-23.9l-130,57.7c-25.3-11-51.8-19.1-79-24.2L382.5,18
		c-9.3-24-24.5-24-33.8,0l-50,129.6c-26.8,5-53,12.9-78,23.7l-129-57.2c-23.6-10.4-34.3,0.3-23.9,23.9l46.1,103.9
		C41.1,310.9-0.1,406.8,0,507.1c0,13.3,0.7,26.6,2.2,39.9l43.1,408.5h139.4l34.9-113.2c93.2,40.5,198.9,40.5,292.1,0l34.8,113.1H686
		l43-407.7c1.5-13.5,2.2-27.1,2.3-40.6C731.3,407.5,690.6,312.2,618.7,243.3z"/>
	<path class="st1" d="M618.7,243.3c0,0,80.1,169.4,51.7,364.1c-16.4,112.8-38.3,251.3-53.8,347.9h69.3l43-407.7
		c1.5-13.5,2.2-27,2.3-40.6C731.3,407.5,690.7,312.2,618.7,243.3z"/>
</g>
<g id="left_eye">
	<path class="st2" d="M200.8,413.8c-5.5,0-9.9-4.4-9.9-9.9s4.4-9.9,9.9-9.9s9.9,4.4,9.9,9.9S206.2,413.8,200.8,413.8L200.8,413.8z"
		/>
	
		<linearGradient id="SVGID_1_" gradientUnits="userSpaceOnUse" x1="144.9" y1="717.14" x2="312.7" y2="717.14" gradientTransform="matrix(1 0 0 -1 0 1119.4399)">
		<stop  offset="0" style="stop-color:#2273B7"/>
		<stop  offset="0.6" style="stop-color:#3DA4DD"/>
	</linearGradient>
	<path class="st3" d="M312.7,402.3c0,46.3-37.5,83.9-83.9,83.9c-46.3,0-83.9-37.5-83.9-83.9c0-46.3,37.5-83.9,83.9-83.9
		C275.1,318.4,312.7,356,312.7,402.3z M228.8,456.5c29.9,0,54.2-24.2,54.3-54.2c0-29.9-24.2-54.2-54.2-54.2
		c-29.9,0-54.2,24.2-54.2,54.2l0,0C174.6,432.2,198.9,456.5,228.8,456.5z"/>
	<path class="st4" d="M228.8,456.5c-29.9,0-54.2-24.3-54.2-54.3c0-29.9,24.3-54.2,54.2-54.2s54.2,24.3,54.2,54.2
		C283.1,432.2,258.8,456.5,228.8,456.5C228.9,456.5,228.8,456.5,228.8,456.5z M190.8,403.9c0,5.5,4.4,9.9,9.9,9.9s9.9-4.4,9.9-9.9
		s-4.4-9.9-9.9-9.9C195.3,394,190.9,398.4,190.8,403.9L190.8,403.9z M228.8,397.1c10.9,0,19.8-8.9,19.8-19.8s-8.9-19.8-19.8-19.8
		c-10.9,0-19.8,8.9-19.8,19.8S217.9,397.1,228.8,397.1L228.8,397.1z"/>
	<path class="st2" d="M228.8,486.1c46.3,0,83.9-37.5,83.9-83.8s-37.5-83.9-83.8-83.9S145,355.9,145,402.2l0,0
		C145,448.6,182.5,486.1,228.8,486.1z M355.7,402.3c0,70.1-56.8,126.9-126.9,126.9s-126.9-56.8-126.9-126.9s56.8-126.9,126.9-126.9
		C298.9,275.3,355.7,332.2,355.7,402.3L355.7,402.3z"/>
	<path class="st2" d="M228.8,397.1c-10.9,0-19.8-8.9-19.8-19.8s8.9-19.8,19.8-19.8c10.9,0,19.8,8.9,19.8,19.8l0,0
		C248.6,388.2,239.8,397.1,228.8,397.1L228.8,397.1z"/>
</g>
<g id="right_eye">
	
		<linearGradient id="SVGID_2_" gradientUnits="userSpaceOnUse" x1="578.9002" y1="715.5899" x2="411.2" y2="715.5899" gradientTransform="matrix(1 0 0 -1 0 1119.4399)">
		<stop  offset="0" style="stop-color:#2273B7"/>
		<stop  offset="0.6" style="stop-color:#3DA4DD"/>
	</linearGradient>
	<path class="st5" d="M411.2,403.9c0,46.3,37.6,83.9,83.9,83.8c46.3,0,83.9-37.6,83.8-83.9c0-46.3-37.6-83.8-83.9-83.8
		C448.8,320,411.2,357.6,411.2,403.9z M495.1,458.1c-29.9,0-54.2-24.3-54.2-54.2c0-29.9,24.3-54.2,54.2-54.2
		c29.9,0,54.2,24.3,54.2,54.2l0,0C549.3,433.8,525,458.1,495.1,458.1z"/>
	<path class="st2" d="M495.1,398.7c10.9,0,19.8-8.9,19.8-19.8s-8.9-19.8-19.8-19.8s-19.8,8.9-19.8,19.8l0,0
		C475.3,389.9,484.1,398.7,495.1,398.7z"/>
	<path class="st2" d="M495.1,487.8c-46.3,0-83.9-37.5-83.9-83.9c0-46.3,37.5-83.9,83.9-83.9c46.3,0,83.9,37.5,83.9,83.9
		C578.9,450.2,541.4,487.8,495.1,487.8z M368.2,403.9c0,70.1,56.8,126.9,126.9,126.9S622,474,622,403.9S565.2,277,495.1,277l0,0
		C425,277,368.2,333.8,368.2,403.9L368.2,403.9z"/>
	<path class="st4" d="M440.8,403.9c0,29.9,24.3,54.2,54.2,54.2s54.2-24.3,54.2-54.2c0-29.9-24.3-54.2-54.2-54.2
		C465.1,349.7,440.9,374,440.8,403.9z M495.1,398.7c-10.9,0-19.8-8.9-19.8-19.8s8.9-19.8,19.8-19.8s19.8,8.9,19.8,19.8l0,0
		C514.9,389.9,506,398.7,495.1,398.7z M523.1,415.4c-5.5,0-9.9-4.4-9.9-9.9s4.4-9.9,9.9-9.9s9.9,4.4,9.9,9.9l0,0
		C533.1,411,528.6,415.4,523.1,415.4C523.2,415.4,523.1,415.4,523.1,415.4z"/>
	<path class="st2" d="M513.3,405.5c0,5.5,4.4,9.9,9.9,9.9s9.9-4.4,9.9-9.9s-4.4-9.9-9.9-9.9l0,0
		C517.7,395.6,513.3,400.1,513.3,405.5z"/>
</g>
<g id="mouth">
	<path class="st6" d="M215.1,704.8c25.4,22.5,74.1,56.7,135.7,56.7c86.1,0,128.5-33.6,133.5-37.9l0,0
		c-48.5,47.9-141.1,64.1-200.2,52.1c-32.4-6.6-61.7-24.3-77-52.6C207.1,723.1,208.9,715.7,215.1,704.8z"/>
	<path class="st4" d="M198.7,701.1c-11.7-48.6,4.9-81.7,34.6-104c69.3-52.1,267.1-86.6,282.4,38.1c3,24.3-1.8,45.3-11.9,63.3
		c0,0-17.4-91.8-148-72.6c-90.1,13.3-126.6,54.5-140.6,78.9c-6.3,10.9-8,18.4-8,18.4C203.4,716.2,200.5,708.8,198.7,701.1z"/>
	<path class="st7" d="M503.8,698.4c-5.3,9.3-11.8,17.8-19.5,25.2l0,0c-5,4.2-47.4,37.9-133.5,37.9c-61.6,0-110.3-34.2-135.7-56.7
		c14-24.3,50.5-65.6,140.6-78.9C486.3,606.7,503.8,698.4,503.8,698.4z"/>
</g>
</svg>
