<?xml version="1.0" encoding="utf-8"?>
<!-- Generator: Adobe Illustrator 23.0.0, SVG Export Plug-In . SVG Version: 6.00 Build 0)  -->
<svg version="1.1" id="Yellowmonster" xmlns="http://www.w3.org/2000/svg" xmlns:xlink="http://www.w3.org/1999/xlink" x="0px"
	 y="0px" viewBox="0 0 756.5 960.6" style="enable-background:new 0 0 756.5 960.6;" xml:space="preserve">
<style type="text/css">
	.st0{fill:url(#body_1_);}
	.st1{fill:#E43333;}
	.st2{fill:#9C1C1B;}
	.st3{fill:#1E1F1D;}
	.st4{fill:#C8C7C7;}
	.st5{fill:#FFFFFF;}
	.st6{fill:#B2B1B0;}
	.st7{fill:#063E51;}
	.st8{fill:#C39E05;}
	.st9{fill:#E5B90D;}
	.st10{fill:#F1C906;}
	.st11{fill:#F7B21C;}
</style>
<title>kidaha_5</title>
<linearGradient id="body_1_" gradientUnits="userSpaceOnUse" x1="173.6664" y1="255.8453" x2="589.0366" y2="849.0714" gradientTransform="matrix(1 0 0 -1 0 1128.63)">
	<stop  offset="0" style="stop-color:#F8B133"/>
	<stop  offset="0.24" style="stop-color:#F9B531"/>
	<stop  offset="0.53" style="stop-color:#FBC02B"/>
	<stop  offset="0.85" style="stop-color:#FED11A"/>
	<stop  offset="1" style="stop-color:#FFD907"/>
</linearGradient>
<path id="body" class="st0" d="M753.6,536.2C730,477,693.3,428.1,651,394.6l31.4-15.1c8.4-3.9,5.8-15.7-6.3-24.9
	c-42.9-32.4-90.8-51.4-135-55.7l19.4-28.6c2.5-3.4,2.2-8.1-0.9-11c-3-3.2-8.5-5.6-15.5-6.2c-22-1.8-44.1-0.3-65.7,4.2
	c-15.2,3.3-30,8.3-44,15.1c-37.1-7.2-75.1-7.2-112.2,0c-14-6.7-28.8-11.8-44-15.1c-21.6-4.6-43.7-6-65.7-4.2c-7,0.5-12.5,3-15.5,6.2
	c-3,2.9-3.4,7.6-0.9,11l19.4,28.6c-44.2,4.2-92.1,23.2-135,55.7c-12.1,9.2-14.7,21-6.3,24.9l31.4,15.1
	C63.2,428.1,26.6,477,2.9,536.2c-6,15-2.4,27.5,6.8,26.8l59.7-3.8c-12.6,31.7-20.2,65-22.7,99c-2.8,37.4,0.4,75,9.3,111.4
	c4,16.5,14.6,25.2,21.7,19.3l49-39.2c10.6,42.4,30.3,81.9,57.8,115.9c29.2,36.3,69.4,68.5,118.5,90.4c8.6,3.8,16.8,5.1,22.7,4.2
	s9.6-3.8,9.6-8.5l1-100.5c13.8,2,27.8,3,41.8,3s28.1-1,42-3l1,100.5c0,4.6,3.7,7.6,9.6,8.5s14.1-0.4,22.7-4.2
	c49.1-21.9,89.3-54.2,118.5-90.4c27.5-34,47.2-73.5,57.8-115.9l49,39.2c7.1,5.9,17.7-2.8,21.7-19.3c8.9-36.4,12-74,9.3-111.4
	c-2.5-34-10.2-67.3-22.7-99l59.7,3.8C756,563.7,759.6,551.3,753.6,536.2z"/>
<g id="mouth">
	<path class="st1" d="M378.3,694.8c51.8,0,83.1,23.2,97.4,37.3l0,0c-20.2,27.2-51,48.1-97.8,48.1c-46.5,0-77.2-20.6-97.4-47.6l0,0
		C294.4,718.5,325.8,694.8,378.3,694.8z"/>
	<path class="st2" d="M271.6,742.9c2.6-3.7,5.6-7.1,8.8-10.3l0,0c20.2,27,50.9,47.6,97.4,47.6c46.8,0,77.5-20.9,97.8-48.1l0,0
		c3.4,3.3,6.5,6.9,9.3,10.8c-21.5,30.5-55,54.3-106.6,54.3S293.2,773.3,271.6,742.9z"/>
	<path class="st3" d="M524.3,613.1c0,0-1,75.5-39.4,129.8c-2.8-3.9-5.9-7.5-9.3-10.8c-14.3-14.2-45.5-37.3-97.4-37.3
		c-52.4,0-83.9,23.8-97.9,37.8c-3.2,3.2-6.2,6.6-8.8,10.3c-38.4-54.3-39.4-129.8-39.4-129.8v-62.9H259v117.2l47.8-92.3l21.8,31.2
		l23.2-27.6l26.3,30.1l22.7-30.1l23.2,27.6l21.8-31.1l47.8,92.3V550.2h30.5L524.3,613.1L524.3,613.1z"/>
	<polygon class="st4" points="259.1,561.1 259.1,550.2 378.3,550.2 493.8,550.2 493.8,561.1 	"/>
	<polygon class="st5" points="259.1,561.1 493.8,561.1 493.8,667.5 446,575.2 424.2,606.3 401,578.7 378.3,608.8 351.9,578.7 
		328.7,606.3 306.9,575.2 259.1,667.5 	"/>
</g>
<g id="left_eye">
	<path class="st5" d="M305.9,447.1c0,5.9-4.8,10.7-10.7,10.7c-5.9,0-10.7-4.8-10.7-10.7c0-5.9,4.8-10.7,10.7-10.7l0,0
		C301.2,436.4,305.9,441.2,305.9,447.1L305.9,447.1z"/>
	<path class="st5" d="M275.3,408.2c0,11.9-9.6,21.5-21.4,21.5s-21.5-9.6-21.5-21.4c0-11.9,9.6-21.5,21.4-21.5l0,0
		C265.7,386.8,275.3,396.4,275.3,408.2z"/>
	<path class="st6" d="M261.5,520.4c56.3,0,103.9-41.5,111.7-97.2c0.1,2.2,0.2,4.4,0.2,6.6c0,58.1-47.1,105.2-105.3,105.2
		c-37.6,0-72.3-20.1-91.1-52.6l0,0C198.4,506.5,229.2,520.4,261.5,520.4z"/>
	<path class="st7" d="M275.3,408.2c0-11.9-9.6-21.5-21.5-21.5s-21.5,9.6-21.5,21.5s9.6,21.5,21.5,21.5l0,0
		C265.7,429.7,275.3,420.1,275.3,408.2C275.3,408.3,275.3,408.3,275.3,408.2z M329.6,429.8c0,33.9-27.5,61.4-61.5,61.4
		s-61.4-27.5-61.4-61.5s27.5-61.4,61.5-61.4l0,0C302.1,368.3,329.6,395.8,329.6,429.8C329.6,429.7,329.6,429.8,329.6,429.8
		L329.6,429.8z M305.9,447.1c0-5.9-4.8-10.7-10.7-10.7c-5.9,0-10.7,4.8-10.7,10.7s4.8,10.7,10.7,10.7l0,0
		C301.1,457.8,305.9,453,305.9,447.1z"/>
	<path class="st5" d="M162.9,429.8c-0.1-58.1,47-105.3,105.1-105.3c55.6-0.1,101.7,43.2,105.1,98.7c-8.6,61.7-65.5,104.7-127.2,96.1
		c-26.7-3.7-51.1-16.8-68.9-37l0,0C167.8,466.3,162.9,448.2,162.9,429.8z M268.2,491.2c33.9,0,61.4-27.5,61.4-61.5
		s-27.5-61.4-61.5-61.4s-61.4,27.5-61.4,61.5l0,0C206.8,463.7,234.3,491.2,268.2,491.2L268.2,491.2L268.2,491.2z"/>
</g>
<g id="right_eye">
	<path class="st5" d="M484.8,325.7c55.6,0,101.6,43.2,105,98.7c-8.7,61.7-65.7,104.7-127.3,96c-26.6-3.7-51-16.8-68.8-36.9l0,0
		c-29-50.4-11.8-114.7,38.6-143.7C448.2,330.6,466.3,325.7,484.8,325.7L484.8,325.7z M546.2,430.9c0-33.9-27.5-61.4-61.5-61.4
		c-33.9,0-61.4,27.5-61.4,61.5c0,33.9,27.5,61.4,61.4,61.4C518.7,492.4,546.2,464.9,546.2,430.9C546.2,431,546.2,431,546.2,430.9z"
		/>
	<path class="st7" d="M491.9,409.5c0-11.9-9.6-21.5-21.4-21.5c-11.9,0-21.5,9.6-21.5,21.4c0,11.9,9.6,21.5,21.4,21.5l0,0
		C482.2,430.9,491.8,421.3,491.9,409.5z M522.5,448.3c0-5.9-4.8-10.7-10.7-10.7s-10.7,4.8-10.7,10.7c0,5.9,4.8,10.7,10.7,10.7l0,0
		C517.7,459,522.5,454.2,522.5,448.3L522.5,448.3z M546.2,430.9c0,33.9-27.5,61.5-61.4,61.5s-61.5-27.5-61.5-61.4
		s27.5-61.5,61.4-61.5l0,0C518.7,369.5,546.2,397,546.2,430.9L546.2,430.9z"/>
	<path class="st5" d="M491.9,409.5c0,11.9-9.6,21.5-21.5,21.4s-21.5-9.6-21.4-21.5c0-11.8,9.6-21.4,21.5-21.4
		C482.2,388,491.8,397.6,491.9,409.5C491.9,409.4,491.9,409.5,491.9,409.5z"/>
	<path class="st6" d="M478.1,521.6c56.2,0,103.9-41.4,111.7-97.1c0.2,2.1,0.2,4.3,0.2,6.5c0,58.1-47.2,105.2-105.3,105.2
		c-37.6,0-72.3-20.1-91.1-52.6l0,0C415,507.8,445.8,521.6,478.1,521.6z"/>
	<path class="st5" d="M522.5,448.3c0,5.9-4.8,10.7-10.7,10.7c-5.9,0-10.7-4.8-10.7-10.7c0-5.9,4.8-10.7,10.7-10.7l0,0
		C517.7,437.6,522.5,442.4,522.5,448.3z"/>
</g>
<g id="head">
	<path class="st8" d="M375.5,259.8c-156.7,0-224.8,28.8-224.8,28.8c-1-4.7-1.7-9.5-2.4-14.4l0,0c0,0,67.3-34.5,227.1-34.5
		c157.7,0,225.4,33.6,227.2,34.5c-0.6,4.8-1.4,9.6-2.4,14.4C598.8,295.7,532.2,259.8,375.5,259.8z"/>
	<path class="st9" d="M150.7,288.6c0,0,68.1-28.8,224.8-28.8s224.8,28.8,224.8,28.8c-1.6,8-3.6,16-6,23.8
		c-55.6-11.8-133.1-19.1-218.8-19.1s-163.2,7.3-218.8,19.1C154.3,304.6,152.2,296.6,150.7,288.6z"/>
	<path class="st10" d="M148.3,274.2L148.3,274.2c-1.3-10-2-20.1-2-30.2c0-126.6,102.6-229.1,229.1-229.1S604.5,117.5,604.5,244
		c0,10.1-0.7,20.2-2,30.2c-1.8-0.9-69.5-34.5-227.2-34.5C215.6,239.7,148.3,274.2,148.3,274.2z"/>
	<path class="st11" d="M192.3,128.3c0,0,2.9,29.5-37.4,33.6C99.6,87.4,104.1,0,104.1,0S126.5,77.9,192.3,128.3L192.3,128.3z"/>
	<path class="st8" d="M154.9,162c40.2-4.2,37.4-33.6,37.4-33.6l0,0c14.9,11.5,31.3,20.8,48.8,27.6c0,0,0,14.9-14.1,32.6
		s-36.2,11.5-36.2,11.5C177.4,188.8,165.4,176,154.9,162z"/>
	<path class="st8" d="M509.8,156c0,0,0,14.9,14.2,32.6s36.3,11.5,36.3,11.5c13.3-11.3,25.3-24.1,35.8-38.1
		c-40.2-4.2-37.4-33.6-37.4-33.6l0,0C543.7,139.8,527.3,149.1,509.8,156z"/>
	<path class="st11" d="M596,162C651.4,87.4,646.8,0,646.8,0s-22.4,77.9-88.2,128.3l0,0C558.7,128.3,555.8,157.8,596,162z"/>
</g>
</svg>
