<?xml version="1.0" encoding="utf-8"?>
<!-- Generator: Adobe Illustrator 23.0.0, SVG Export Plug-In . SVG Version: 6.00 Build 0)  -->
<svg version="1.1" id="Greenmonster" xmlns="http://www.w3.org/2000/svg" xmlns:xlink="http://www.w3.org/1999/xlink" x="0px"
	 y="0px" viewBox="0 0 716.6 953.2" style="enable-background:new 0 0 716.6 953.2;" xml:space="preserve">
<style type="text/css">
	.st0{fill:#94C128;}
	.st1{fill:#74922B;}
	.st2{fill:#59AE33;}
	.st3{fill:#499834;}
	.st4{fill:#1E1F1D;}
	.st5{fill:#E62A46;}
	.st6{fill:#CD163B;}
	.st7{fill:#FFFFFF;}
	.st8{fill:#063E51;}
	.st9{fill:#B2B1B0;}
</style>
<title>kidaha_3</title>
<g id="right_horn">
	<path class="st0" d="M543.5,67l25.8,60.5l0,0c-0.3,3.7-1.4,6.3-3.4,7.1c-5.5,2.2-15.4-9.4-22.2-26.1l-4.2-9.2l-2.2-4.8l-2.8-6.3
		l-11.6-26L548,45l5.9-4l4.5-3.1l8.9-6.2l18.7-13L613.4,0l15.8,13.5l8.1,6.9l3.8,3.2l2.7,2.2l21.4,17.8l21.4,17.8l5.4,4.4l2.8,2.3
		l4.3,3.7l17.5,15l-3.3,19.5l-1.6,9.6l-0.9,5.9l-3.6,23.8l-3.6,23.8l-1.8,11.8l-3.4,20l-11.1,10.3l-2.8,2.6l-1.5,1.5l-3.1,3
		l-12.3,11.7L643,253.9L593.7,301c-5.1,5.3-10.7,10.6-16.6,15.8c-26.7,23.5-54.1,9.1-56.2-13.3l138.8-115L692,101l-84-73.6L543.5,67
		z"/>
	<path class="st1" d="M569.2,127.5L543.5,67L608,27.3l84,73.7l-32.3,87.5l-138.8,115c-1-10.2,3.4-22.1,15.5-32.8
		c5.9-5.2,11.9-10,17.8-14.4l53-43l26.5-21.5l13.2-10.7l3.3-2.7l1.7-1.3c0.2-0.1,0.2-0.2,0.4-0.3l1.7-1l0.4-1.2l0.3-0.6l0.2-0.4
		l0.3-1.4l2.8-11.7l5.5-23.4l5.5-23.4l1.4-5.8c0.2-0.6,0.2-0.5,0.2-0.8l0.1-0.5l0.3-1l1.3-4l-3.1-3.6l-0.9-0.9l-2.4-2.4l-5-4.8
		L641,70.6l-20-19.5l-2.5-2.4l-0.5-0.5l-0.2-0.3l-0.6-0.5l-2.3-2.5l-4.8-5.1l-9.4,5c-0.5,0.3-2.5,1.4-4,2.3l-4.6,2.8l-9.5,5.5
		l-9.5,5.5l-4.7,2.8l-1.2,0.7l-0.7,0.4l-1.4,0.8L553.4,72l3.8,11.5l1,3l1.6,4.5l3.5,9.6C567.6,110.9,569.7,121,569.2,127.5
		L569.2,127.5z"/>
</g>
<g id="left_horn">
	<path class="st1" d="M56.9,240.6l138.8,115l0,0c1-10.2-3.4-22.1-15.6-32.8c-6-5.2-11.9-10.1-17.8-14.4l-53-43l-26.4-21.5
		l-13.2-10.7l-3.3-2.7l-1.7-1.3c-0.1-0.1-0.2-0.2-0.4-0.3l-1.7-1l-0.5-1.2l-0.2-0.6l-0.2-0.3l-0.3-1.4l-2.8-11.6l-5.5-23.4L47.6,166
		l-1.4-5.8c-0.2-0.6-0.2-0.6-0.2-0.8l-0.2-0.5l-0.3-1l-1.3-4l3.2-3.6l0.8-1l2.4-2.3l5-4.8l19.9-19.4l19.9-19.5l2.4-2.4l0.6-0.5
		l0.2-0.3l0.6-0.6l2.3-2.4l4.8-5.1l9.4,5c0.5,0.2,2.5,1.4,4,2.3l4.7,2.8l9.4,5.5l9.4,5.5l4.7,2.7l1.2,0.7l0.7,0.4l1.4,0.7l11.6,6.4
		l-3.8,11.5l-1,3.1l-1.7,4.5l-3.4,9.6c-4.3,10.5-6.4,20.5-5.9,27l25.8-60.5l-64.5-39.7l-84,73.7L56.9,240.6z"/>
	<path class="st0" d="M195.7,355.6l-138.8-115L24.6,153l84-73.7l64.5,39.7l-25.8,60.5c0.3,3.8,1.4,6.3,3.4,7.1
		c5.5,2.2,15.4-9.5,22.2-26.1l4.2-9.2l2.2-4.8l2.8-6.4l11.5-26L168.5,97l-5.9-4.1l-4.5-3.1l-9-6.3l-18.7-12.9L103.1,52L87.4,65.6
		l-8.1,6.9l-3.8,3.2l-2.7,2.2L51.5,95.7L30,113.5l-5.4,4.4l-2.8,2.3l-4.3,3.7L0,138.9l3.3,19.5l1.6,9.6l0.9,6l3.5,23.7l3.6,23.8
		l1.8,11.9l3.4,20l11.1,10.3l2.8,2.5l1.6,1.5l3,3L49,282.4l24.7,23.5L123,353c5.1,5.3,10.6,10.6,16.6,15.8
		C166.2,392.3,193.7,377.9,195.7,355.6L195.7,355.6z"/>
</g>
<g id="body">
	<path class="st2" d="M282.1,255.1c0,0,422.7-124.2,348.7,217.3S521,897.5,611.7,895.2s81.2,43-66.9,57.3s-16.7-181.5-150.4-172
		S220,835.4,220,885.6s-7.2,67.6-66.9,67.6S26.5,950,93.4,909.4s71.6-52.5,45.4-207.8S-42.7,338.7,282.1,255.1z"/>
	<path class="st3" d="M594.2,577.6c-4.4,20.8-15.2,40.2-28.6,30.2c-21.8-16.2,5-83.6,25.3-68.4C597.1,544.1,597.6,561.3,594.2,577.6
		z"/>
	<path class="st3" d="M610.2,502.8c-2.2,10.4-7.6,20.1-14.3,15.1c-10.9-8.1,2.5-41.8,12.6-34.2C611.7,486,612,494.6,610.2,502.8z"/>
	<path class="st3" d="M562,520.3c-1.2,5.6-4.1,10.8-7.7,8.1c-5.9-4.3,1.3-22.5,6.8-18.4C562.8,511.3,563,515.9,562,520.3z"/>
	<path class="st3" d="M541.1,562c-1.8,8.7-6.4,16.8-12,12.7c-9.2-6.8,2.1-35.1,10.6-28.7C542.3,547.9,542.5,555.1,541.1,562z"/>
	<path class="st3" d="M544.9,593.8c-0.7,3.5-2.6,6.7-4.8,5.1c-3.7-2.7,0.8-14.1,4.3-11.5C545.4,588.2,545.4,591,544.9,593.8z"/>
	<path class="st3" d="M528.6,519.9c-0.7,3.5-2.6,6.7-4.8,5.1c-3.7-2.7,0.8-14.1,4.2-11.5C529.1,514.3,529.1,517.1,528.6,519.9z"/>
	<path class="st3" d="M622.4,463c-1.2,5.7-4.2,11-7.8,8.3c-6-4.4,1.4-22.9,6.9-18.7C623.2,453.9,623.3,458.6,622.4,463z"/>
	<path class="st3" d="M585.7,473.9c-2.2,10.6-7.7,20.5-14.6,15.4c-11.2-8.2,2.6-42.6,12.9-34.9C587.2,456.9,587.4,465.6,585.7,473.9
		z"/>
	<path class="st3" d="M581.6,637.2c-1.2,5.7-4.2,11-7.8,8.3c-6-4.4,1.4-22.8,6.9-18.7C582.4,628,582.5,632.7,581.6,637.2z"/>
</g>
<g id="mouth">
	<path class="st4" d="M224,721.2c6.8-5.1,13.5-9.9,20-14.5c149-103.9,248.9-78.7,287-61.5c11.5,5.2,17.4,9.6,17.4,9.6
		c28.9-77.8,31.3-109.4,26.5-141.6L536,574.5l-42.6-49.2l-29,59.8L421.9,536L385,597l-39.9-49.6l-31.6,60.2L273.6,558l-28.9,60
		l-39.9-49.6l-18.4,58.2l-47.3-48.5C147.6,635.2,178,686.5,224,721.2L224,721.2z"/>
	<path class="st5" d="M531,645.2c-38.1-17.2-138-42.4-287,61.5c0,0,67.2,42.1,149.4,29.8S531,645.2,531,645.2z"/>
	<path class="st6" d="M548.3,654.8c0,0-5.9-4.4-17.4-9.6c0,0-55.4,79.1-137.6,91.3S244,706.7,244,706.7c-6.5,4.6-13.3,9.4-20,14.5
		l-0.1,0.1c97,73.5,235.1,54.4,308.6-42.6c0.5-0.7,1-1.3,1.5-2C539.3,669.7,544,662.4,548.3,654.8z"/>
</g>
<g id="left_eye">
	<path class="st7" d="M193,418.4c0-13.8,11.2-24.9,24.9-24.9s24.9,11.2,24.9,24.9c0,13.7-11.1,24.9-24.9,24.9
		c-13.7,0-24.9-11.1-24.9-24.8V418.4z"/>
	<path class="st8" d="M234.6,372c39.4,0,71.3,32,71.3,71.4s-32,71.3-71.4,71.3s-71.3-31.9-71.3-71.3C163.2,404,195.2,372,234.6,372
		L234.6,372z M278.4,463.6c0-6.9-5.5-12.5-12.4-12.5s-12.5,5.5-12.5,12.4S259,476,265.9,476l0,0C272.9,476,278.4,470.4,278.4,463.6
		L278.4,463.6z M217.9,393.5c-13.8,0-24.9,11.1-25,24.9s11.1,24.9,24.9,25s24.9-11.1,25-24.9l0,0
		C242.8,404.7,231.7,393.5,217.9,393.5C218,393.5,218,393.5,217.9,393.5L217.9,393.5z"/>
	<path class="st7" d="M306,443.4c0-39.4-31.9-71.4-71.3-71.5s-71.4,31.9-71.5,71.3c0,39.4,31.9,71.4,71.3,71.5c0,0,0,0,0.1,0
		C274,514.7,306,482.8,306,443.4z M234.6,321.1c64.5,0,117.9,50.2,121.9,114.6c-10,71.7-76.2,121.6-147.9,111.6
		c-30.9-4.3-59.2-19.5-79.9-42.9l0,0c-33.7-58.5-13.6-133.3,44.9-167C192.1,326.8,213.2,321.1,234.6,321.1z"/>
	<path class="st9" d="M356.5,435.7c0.2,2.5,0.3,5.1,0.3,7.7c0,67.5-54.8,122.2-122.3,122.1c-43.6,0-84-23.3-105.8-61.1l0,0
		c48,54.2,130.8,59.2,184.9,11.2C336.9,494.9,352.1,466.6,356.5,435.7L356.5,435.7z"/>
	<path class="st7" d="M253.5,463.5c0-6.9,5.6-12.5,12.5-12.5s12.5,5.6,12.5,12.5s-5.6,12.5-12.4,12.5
		C259.1,476,253.5,470.4,253.5,463.5z"/>
</g>
<g id="right_eye">
	<path class="st8" d="M481.9,322.7c36.8,0,66.6,29.8,66.6,66.6s-29.8,66.6-66.6,66.6s-66.6-29.8-66.6-66.6l0,0
		C415.4,352.5,445.2,322.7,481.9,322.7z M489.6,366c0-12.8-10.4-23.3-23.2-23.3c-12.8,0-23.3,10.4-23.3,23.2s10.4,23.3,23.2,23.3
		l0,0C479.2,389.2,489.6,378.8,489.6,366L489.6,366z M511.3,396.5c-6.4,0-11.6,5.2-11.7,11.6c0,6.4,5.2,11.6,11.6,11.7
		s11.6-5.2,11.7-11.6l0,0C522.9,401.7,517.7,396.5,511.3,396.5L511.3,396.5L511.3,396.5z"/>
	<path class="st9" d="M474.7,487.5c60.9,0,112.6-44.9,121-105.3c0.2,2.3,0.2,4.7,0.2,7c0,63-51.2,114-114.2,114
		c-40.7,0-78.3-21.8-98.7-57l0,0C406.3,472.5,439.7,487.6,474.7,487.5z"/>
	<path class="st7" d="M466.4,342.7c12.9,0,23.3,10.4,23.3,23.2c0,12.9-10.4,23.3-23.2,23.3c-12.9,0-23.3-10.4-23.3-23.2
		C443.1,353.2,453.5,342.7,466.4,342.7z"/>
	<path class="st7" d="M499.6,408.1c0-6.4,5.2-11.6,11.6-11.7c6.4,0,11.6,5.2,11.7,11.6c0,6.4-5.2,11.6-11.6,11.7
		C504.8,419.8,499.6,414.6,499.6,408.1C499.6,408.2,499.6,408.1,499.6,408.1z"/>
	<path class="st7" d="M367.9,389.3c-1.3-62.9,48.7-115,111.7-116.3c62-1.3,113.7,47.3,116.2,109.3c-9.4,66.8-71.2,113.4-138,104.1
		c-28.8-4-55.3-18.2-74.6-40.1l0,0C373.1,428.9,367.8,409.3,367.9,389.3z M548.5,389.3c0-36.8-29.8-66.6-66.6-66.6
		s-66.6,29.8-66.6,66.6s29.8,66.6,66.6,66.6S548.5,426.1,548.5,389.3L548.5,389.3L548.5,389.3z"/>
</g>
</svg>
