<?xml version="1.0" encoding="utf-8"?>
<!-- Generator: Adobe Illustrator 23.0.0, SVG Export Plug-In . SVG Version: 6.00 Build 0)  -->
<svg version="1.1" id="Angrymonster" xmlns="http://www.w3.org/2000/svg" xmlns:xlink="http://www.w3.org/1999/xlink" x="0px"
	 y="0px" viewBox="0 0 949.4 934.9" style="enable-background:new 0 0 949.4 934.9;" xml:space="preserve">
<style type="text/css">
	.st0{fill:#4081C2;}
	.st1{fill:#125B95;}
	.st2{fill:#66A0D7;}
	.st3{fill:#FFFFFF;}
	.st4{fill:#C8C7C7;}
	.st5{fill:#1E1F1D;}
	.st6{fill:#EEEDED;}
	.st7{fill:#B1B1B0;}
</style>
<title>kidaha_8</title>
<g id="right_horn">
	<path class="st0" d="M667.4,28.6l-67.5,41.6l27,63.3l0,0c-0.3,3.9-1.5,6.6-3.5,7.5c-5.7,2.3-16.2-9.9-23.3-27.3l-4.4-9.7l-2.3-5
		l-2.9-6.6l-12.1-27.3l26.3-18l6.2-4.3l4.7-3.3l9.4-6.6l19.6-13.6L673.1,0l16.6,14.2l8.5,7.2l4,3.4l2.8,2.3l22.4,18.6l22.5,18.6
		l5.6,4.6l2.9,2.4l4.5,3.9L781.3,91l-3.5,20.5l-1.7,10l-0.9,6.2l-3.8,24.9l-3.8,24.9l-1.9,12.4l-3.6,20.9l-11.6,10.8l-2.9,2.7
		l-1.6,1.5l-3.2,3.1l-12.9,12.3l-25.8,24.7l-51.7,49.3c-5.3,5.5-11.2,11.1-17.3,16.6c-27.9,24.5-56.6,9.5-58.8-13.9l145.4-120.5
		l33.8-91.7L667.4,28.6z"/>
	<path class="st1" d="M626.9,133.5l-27-63.3l67.5-41.6l88,77.2l-33.8,91.7L576.3,318c-1-10.7,3.6-23.2,16.3-34.4
		c6.2-5.4,12.5-10.5,18.6-15.1l55.5-45l27.8-22.5l13.9-11.3l3.5-2.8l1.8-1.4c0.2-0.1,0.3-0.2,0.4-0.3l1.7-1l0.5-1.3l0.3-0.6l0.1-0.4
		l0.3-1.5l2.9-12.2l5.8-24.5l5.8-24.5l1.5-6.1c0-0.3,0.1-0.5,0.2-0.8l0.2-0.5l0.3-1l1.3-4.3l-3.3-3.8l-0.9-1l-2.5-2.5l-5.2-5.1
		L702,73.9l-20.8-20.4l-2.6-2.5l-0.6-0.6l-0.3-0.3l-0.6-0.6l-2.4-2.5l-5-5.3l-9.9,5.2c-0.5,0.3-2.6,1.5-4.2,2.4l-4.9,2.9l-9.9,5.8
		l-9.9,5.8l-5,2.8l-1.3,0.8l-0.7,0.4l-1.5,0.8l-12.3,6.7l4,12l1.1,3.2l1.7,4.8l3.6,10C625.3,116.2,627.4,126.7,626.9,133.5
		L626.9,133.5z"/>
</g>
<g id="left_horn">
	<path class="st0" d="M133.5,75.2L115.1,91l3.4,20.5l1.7,10l1,6.2l3.8,24.9l3.8,24.9l1.9,12.4l3.5,20.9l11.7,10.8l2.9,2.7l1.6,1.5
		l3.2,3.1l12.9,12.3l25.8,24.7l51.7,49.3c5.3,5.5,11.1,11.1,17.4,16.6c27.9,24.5,56.7,9.5,58.8-13.9l0,0L174.7,197.5l-33.8-91.7
		l88-77.2l67.6,41.6l-27,63.3l0,0c0.3,3.9,1.5,6.6,3.6,7.5c5.8,2.3,16.1-9.9,23.3-27.3l4.4-9.7l2.3-5l3-6.6l12.1-27.2l-26.4-18
		l-6.2-4.3l-4.7-3.3l-9.4-6.6l-19.6-13.6L223.2,0l-16.6,14.2l-8.5,7.2l-4,3.4l-2.8,2.3l-22.4,18.6l-22.4,18.6l-5.6,4.7l-2.9,2.3
		L133.5,75.2z"/>
	<path class="st1" d="M275.6,105.2c-4.5,11-6.7,21.5-6.2,28.3l0,0l27-63.3l-67.5-41.6l-88,77.2l33.8,91.7L320,318l0,0
		c1-10.7-3.6-23.2-16.3-34.4c-6.2-5.4-12.5-10.5-18.6-15.1l-55.5-45L201.9,201L188,189.7l-3.5-2.8l-1.8-1.4
		c-0.2-0.1-0.3-0.2-0.4-0.3l-1.7-1l-0.5-1.3l-0.3-0.6l-0.1-0.4l-0.3-1.5l-2.9-12.2l-5.8-24.5l-5.8-24.5l-1.4-6.1
		c0-0.3-0.1-0.5-0.2-0.8l-0.2-0.5l-0.3-1l-1.3-4.3l3.3-3.8l0.9-1l2.5-2.5l5.2-5.1l20.9-20.4l20.9-20.4l2.6-2.6l0.6-0.5l0.3-0.3
		l0.6-0.6l2.4-2.5l5-5.3l9.9,5.2c0.5,0.3,2.6,1.5,4.1,2.4l5,2.9l9.9,5.8l9.9,5.8l4.9,2.9l1.2,0.8l0.7,0.4l1.5,0.8l12.2,6.7l-4,12
		l-1.1,3.2l-1.7,4.8L275.6,105.2z"/>
</g>
<g id="body">
	<path class="st2" d="M474.2,934.9c-108.4,0-95.2-110.1-95.2-110.1s-52.3,101.4-199.9,109.5s-246.6-64.9-123.3-77.1
		s63.5-247.4,50.4-446.1c0,0-6.6-65,38.3-117.9c0.1-0.1,58.3-97.5,267.6-108.4l0,0c0,0,328.7-17.3,312.4,295
		c-13.7,263.2-30.3,308.3,20.7,331.4l0,0c9.5,7.1,22,10.6,36,11.9l0,0c55.2,5.1,134.7-24.7,154.4-14.6
		c31.8,16.2,18.7,126.3-151.3,126.3s-177.5-98.6-177.5-98.6S582.6,934.9,474.2,934.9z"/>
	<path class="st0" d="M726.5,757.8c-2,26.9,5.5,43.6,18.8,53.4c-51-23.1-34.3-68.2-20.7-331.4c16.2-312.3-312.4-295-312.4-295l0,0
		c12.4-0.7,25.3-1,38.7-1c240.9,0,324.7,91.4,308.4,273.6C758.9,572,731,698.3,726.5,757.8z"/>
</g>
<g id="mouth">
	<path class="st3" d="M205.2,641c0,0-10.1-6.3,12.6-22.7s54.1-35.3,54.1-35.3s12.6-8.9,20.1,11.3c4.9,13.2,15.9,45.5,23,66.3
		c-30,8.3-80.2,47.5-80.2,47.5l0,0L205.2,641z"/>
	<path class="st4" d="M315,660.6c3.8,11.1,6.4,18.9,6.4,18.9l0,0c-35.5,17.3-61.8,33.7-79,45.7l-7.5-17.1l0,0
		C234.8,708,285.1,668.9,315,660.6z"/>
	<path class="st5" d="M427,637.7c66.3-21,148.8-38.2,247.9-43.4c0,0-245.6,20.5-442,179.7l-15.1-30c0,0,8.1-7.4,24.7-18.9
		c17.2-12,43.4-28.4,79-45.7c10.2-5,21.2-10,32.9-15C376,655.3,400.2,646.2,427,637.7z"/>
	<path class="st4" d="M354.4,664.5l-6.4-19.1c0,0,42.4-25.9,73.8-29c3,12.1,5.2,21.3,5.2,21.3C400.2,646.2,376,655.3,354.4,664.5z"
		/>
	<path class="st3" d="M421.9,616.4c-31.4,3.1-73.8,29-73.8,29l-16.9-51.1c0,0-8.2-16.3,11.6-23.9s45-16.4,45-16.4s16.4-5,20.2,7.5
		C410.3,569.4,417,596.7,421.9,616.4z"/>
</g>
<g id="eye">
	<path class="st6" d="M250.3,386.5c0-95.3,77.3-172.6,172.6-172.6h0.1l-0.1,10.9c-77.7,0-140.7,62.9-140.8,140.7
		c0,44.7,21.2,86.7,57.1,113.2l-49.4,17.8C264.2,465.5,250.2,426.6,250.3,386.5z"/>
	<path class="st3" d="M422.9,267.8c41.5,0,75.1,33.6,75.1,75.1S464.4,418,422.9,418s-75.1-33.6-75.1-75.1l0,0
		C347.8,301.4,381.4,267.8,422.9,267.8z M422.9,300c-18.4,0-33.4,14.9-33.4,33.3s14.9,33.4,33.3,33.4s33.4-14.9,33.4-33.3l0,0
		C456.3,315,441.3,300.1,422.9,300L422.9,300z"/>
	<path class="st7" d="M506.5,478.7l49.3,17.8c-3.3,4-6.8,7.8-10.4,11.5l0,0c-20.4-7.2-41.5-12.2-62.9-15
		C491,489,499,484.2,506.5,478.7z"/>
	<path class="st5" d="M497.9,342.8c0-41.5-33.6-75.1-75.1-75s-75.1,33.6-75,75.1s33.6,75.1,75.1,75l0,0
		C464.4,417.9,497.9,384.3,497.9,342.8z M363.2,493c-8.5-3.9-16.5-8.7-24-14.3c-62.2-46.2-75.3-134.1-29.1-196.4
		s134.1-75.3,196.4-29.1s75.3,134.1,29.1,196.4c-13.8,18.6-32,33.5-53,43.4C442.9,487.9,402.8,487.9,363.2,493z"/>
	<path class="st7" d="M300.3,508c-3.7-3.7-7.1-7.5-10.5-11.5l49.4-17.8c7.5,5.6,15.5,10.4,24,14.3
		C341.8,495.8,320.7,500.8,300.3,508z"/>
	<path class="st5" d="M482.5,493c21.4,2.8,42.5,7.8,62.9,15c57.3,20.5,78.6,50.9,80.9,54.4c-3.5-4.1-44.4-47.8-203.4-47.8
		s-200,43.7-203.5,47.8c2.3-3.5,23.6-33.8,80.9-54.4c20.4-7.2,41.5-12.2,62.9-15C402.8,487.9,442.9,487.9,482.5,493L482.5,493z"/>
	<path class="st6" d="M423,213.9c95.2,0.1,172.4,77.3,172.4,172.5c0.1,40.2-14,79.1-39.6,110l-49.3-17.8
		c62.5-46.2,75.7-134.3,29.5-196.8c-26.5-35.9-68.5-57-113.1-57.1L423,213.9z"/>
	<path class="st5" d="M389.5,333.4c0-18.4,15-33.4,33.4-33.3c18.4,0,33.4,15,33.3,33.4c0,18.4-14.9,33.3-33.3,33.3
		S389.5,351.9,389.5,333.4C389.5,333.5,389.5,333.5,389.5,333.4z"/>
</g>
</svg>
