<?xml version="1.0" encoding="utf-8"?>
<!-- Generator: Adobe Illustrator 23.0.0, SVG Export Plug-In . SVG Version: 6.00 Build 0)  -->
<svg version="1.1" id="Evilmonster" xmlns="http://www.w3.org/2000/svg" xmlns:xlink="http://www.w3.org/1999/xlink" x="0px"
	 y="0px" viewBox="0 0 628.5 954.8" style="enable-background:new 0 0 628.5 954.8;" xml:space="preserve">
<style type="text/css">
	.st0{fill:#5DC2DB;}
	.st1{fill:#1E1F1D;}
	.st2{fill:#FFFFFF;}
	.st3{fill:#C8C7C7;}
	.st4{fill:#9C1C1B;}
	.st5{fill:#E43333;}
	.st6{fill:#EEEDED;}
	.st7{fill:#B1B1B0;}
</style>
<title>kidaha_8</title>
<path id="body" class="st0" d="M196.6,723.9c-10.4,82.7-62.1,170.7-62.1,170.7s67.2-12.9,72.4,20.7s-33.6,38.8-33.6,38.8H33.7
	C0,959.3,0,933.4,0,933.4V385.1c0-90.5-2.6-139.7,33.6-165.6s408.7-116.4,408.7-116.4s75-20.1,62.1-103.2c0,0,88.4,121.3,1.5,253.2
	c0,0,52.8,47.9,52.8,268.3V892c0,0,69.8,2.6,69.8,33.6s-44,29.2-82.8,29.2H413.9c0,0-28.5-0.7-33.6-52.4s-12.9-201.8-12.9-201.8
	L196.6,723.9z"/>
<g id="mouth">
	<path class="st1" d="M441.1,444.9v67.6c0,0-1,81.2-42.4,139.6c-3-4.1-6.3-8-10-11.5c-15.4-15.3-49-40.2-104.8-40.2
		c-56.4,0-90.2,25.5-105.3,40.8c-3.5,3.4-6.6,7.1-9.5,11l0,0c-41.3-58.4-42.3-139.6-42.3-139.6V445h28.9v126l51.4-99.3l23.4,33.5
		l24.9-29.7l28.3,32.4l24.5-32.4l25,29.7l23.5-33.5L408,571V444.9H441.1z"/>
	<polygon class="st2" points="408.3,456.5 408.3,571 356.9,471.7 333.5,505.3 308.5,475.5 284,507.9 255.7,475.5 230.7,505.3 
		207.3,471.7 155.8,571 155.8,456.5 	"/>
	<polygon class="st3" points="408.3,444.9 408.3,456.5 155.8,456.5 155.8,444.9 284,444.9 	"/>
	<path class="st4" d="M388.8,640.6c3.7,3.5,7,7.4,10,11.5c-23.2,32.9-59.1,58.4-114.8,58.4s-91.6-25.6-114.8-58.4l0,0
		c2.8-3.9,6-7.6,9.5-11c21.8,29,54.8,51.2,104.8,51.2C333.9,692.4,367,669.9,388.8,640.6L388.8,640.6z"/>
	<path class="st5" d="M388.8,640.6L388.8,640.6c-21.8,29.3-54.8,51.7-105.2,51.7c-50,0-83.1-22.2-104.8-51.2
		c15.1-15.2,48.9-40.8,105.3-40.8C339.8,600.4,373.4,625.3,388.8,640.6z"/>
</g>
<g id="eye">
	<path class="st1" d="M196.5,387c15.4-5.4,31.3-9.2,47.4-11.3c29.9-3.9,60.1-3.9,90,0c16.1,2.1,32,5.9,47.4,11.3
		c43.2,15.5,59.3,38.4,61,41c-2.6-3.1-33.5-36-153.3-36s-150.8,32.9-153.4,36C137.2,425.3,153.2,402.4,196.5,387z"/>
	<path class="st6" d="M419,295.4c0,30.3-10.5,59.6-29.9,82.9l-37.2-13.4c47.1-34.8,57.1-101.3,22.2-148.4c-20-27-51.6-43-85.2-43
		l0.1-8.2C360.8,165.3,419,223.6,419,295.4z"/>
	<path class="st7" d="M351.9,364.9l37.2,13.4c-2.5,3-5.1,5.9-7.8,8.6l0,0c-15.4-5.4-31.3-9.2-47.4-11.3
		C340.2,372.7,346.3,369.1,351.9,364.9z"/>
	<path class="st1" d="M394.9,279.5c0,41.2-23.8,78.6-61.1,96.1c-29.9-3.9-60.1-3.9-90,0c-6.4-3-12.4-6.6-18.1-10.8
		c-47.1-34.8-57.1-101.3-22.3-148.4s101.3-57.1,148.4-22.3C379,214.2,394.9,245.9,394.9,279.5z M345.5,262.4
		c0-31.3-25.4-56.6-56.6-56.6c-31.3,0-56.6,25.4-56.6,56.6c0,31.3,25.4,56.6,56.6,56.6C320.2,319,345.5,293.7,345.5,262.4
		L345.5,262.4z"/>
	<path class="st2" d="M288.9,205.8c31.3,0,56.6,25.3,56.6,56.6S320.2,319,288.9,319s-56.6-25.3-56.6-56.6S257.6,205.8,288.9,205.8
		L288.9,205.8z M314,255.4c0-13.9-11.3-25.2-25.2-25.1c-13.9,0-25.2,11.3-25.1,25.2c0,13.9,11.3,25.2,25.2,25.1l0,0
		C302.8,280.5,314,269.3,314,255.4z"/>
	<path class="st1" d="M288.9,230.2c13.9,0,25.2,11.3,25.2,25.2s-11.3,25.2-25.2,25.2c-13.9,0-25.2-11.3-25.2-25.2
		C263.7,241.5,275,230.2,288.9,230.2z"/>
	<path class="st6" d="M289,165.3l-0.1,8.2c-58.6,0-106.1,47.5-106.1,106.1c0,33.7,16,65.3,43,85.3l-37.2,13.4
		c-45.8-55.4-38-137.4,17.5-183.2C229.4,175.8,258.7,165.3,289,165.3L289,165.3z"/>
	<path class="st7" d="M225.8,364.9c5.6,4.2,11.7,7.8,18.1,10.8c-16.1,2.1-32,5.9-47.4,11.3c-2.8-2.8-5.4-5.7-7.9-8.7L225.8,364.9z"
		/>
</g>
</svg>
